<svg width="30" height="31" viewBox="0 0 30 31" fill="none" xmlns="http://www.w3.org/2000/svg">
<path d="M15 1.125C8.875 1.125 3.75 6.25 3.75 12.5C3.75 20.625 12.25 29.875 15 29.875C17.75 29.875 26.25 20.625 26.25 12.5C26.25 6.25 21.125 1.125 15 1.125ZM15 19.625C11.125 19.625 8 16.375 8 12.5C8 11 8.5 9.5 9.375 8.375C9.5 8.125 9.75 8 10 8.125C10.25 8.25 10.375 8.375 10.375 8.625C10.5 9.75 11.375 10.5 12.375 10.5C13.5 10.5 14.375 9.625 14.375 8.5C14.375 7.75 14 7 13.25 6.625C13 6.5 12.875 6.25 12.875 6C12.875 5.75 13.125 5.5 13.375 5.5C13.875 5.5 14.5 5.375 15 5.375C18.875 5.375 22 8.625 22 12.5C22 16.5 18.875 19.625 15 19.625Z" fill="#F47721"/>
</svg>
