<svg width="47" height="49" viewBox="0 0 47 49" fill="none" xmlns="http://www.w3.org/2000/svg">
<path d="M30.7188 14.6773C30.6616 14.5057 30.5521 14.3562 30.4057 14.2499C30.2593 14.1435 30.0833 14.0857 29.9024 14.0844H25.6313L24.3165 10.0281C24.26 9.85619 24.1506 9.70649 24.004 9.60036C23.8574 9.49423 23.681 9.43709 23.5001 9.43709C23.3191 9.43709 23.1427 9.49423 22.9961 9.60036C22.8495 9.70649 22.7402 9.85619 22.6837 10.0281L21.3688 14.0844H17.0977C16.9168 14.0857 16.7408 14.1435 16.5944 14.2499C16.448 14.3562 16.3385 14.5057 16.2813 14.6773C16.2242 14.8507 16.2243 15.0378 16.2815 15.2111C16.3388 15.3843 16.4502 15.5347 16.5993 15.6398L20.0454 18.1492L18.7305 22.2055C18.6738 22.378 18.6731 22.5641 18.7287 22.737C18.7843 22.9099 18.8932 23.0608 19.0399 23.168C19.1882 23.2728 19.3653 23.3291 19.5469 23.3291C19.7285 23.3291 19.9057 23.2728 20.054 23.168L23.5001 20.6586L26.9462 23.168C27.0957 23.2705 27.2719 23.3272 27.4532 23.3312C27.6349 23.3298 27.8118 23.2729 27.9602 23.168C28.1069 23.0608 28.2158 22.9099 28.2714 22.737C28.327 22.5641 28.3264 22.378 28.2696 22.2055L26.9548 18.1492L30.4008 15.6398C30.55 15.5347 30.6614 15.3843 30.7186 15.2111C30.7759 15.0378 30.7759 14.8507 30.7188 14.6773ZM25.4423 17.1266C25.2947 17.2331 25.1845 17.3835 25.1274 17.5563C25.0703 17.7291 25.0692 17.9156 25.1243 18.0891L25.8204 20.2203L24.0071 18.8969C23.8594 18.7907 23.682 18.7336 23.5001 18.7336C23.3181 18.7336 23.1408 18.7907 22.993 18.8969L21.1798 20.2203L21.8758 18.0891C21.9309 17.9156 21.9298 17.7291 21.8727 17.5563C21.8156 17.3835 21.7055 17.2331 21.5579 17.1266L19.7446 15.8031H21.9876C22.1691 15.8042 22.3462 15.7472 22.493 15.6406C22.6399 15.5339 22.7488 15.3831 22.804 15.2102L23.5001 13.0789L24.1962 15.2102C24.2513 15.3831 24.3602 15.5339 24.5071 15.6406C24.654 15.7472 24.8311 15.8042 25.0126 15.8031H27.2555L25.4423 17.1266Z" fill="#F47721"/>
<path d="M23.5001 5.81718C20.5662 5.81637 17.7455 6.94894 15.6268 8.97839C13.5081 11.0079 12.2553 13.7773 12.13 16.7085C12.0047 19.6396 13.0165 22.5059 14.9543 24.7088C16.892 26.9117 19.6058 28.2809 22.529 28.5305C22.8555 28.5562 23.1735 28.5734 23.5001 28.5734C23.7922 28.5734 24.093 28.5562 24.3852 28.5305H24.4711V28.5219C27.3932 28.2723 30.106 26.9036 32.0429 24.7015C33.9799 22.4994 34.9913 19.6342 34.866 16.7042C34.7406 13.7741 33.4883 11.0057 31.3704 8.97707C29.2525 6.94842 26.4328 5.81632 23.5001 5.81718ZM31.9305 21.9047C31.9282 21.9047 31.9261 21.9056 31.9244 21.9072C31.9228 21.9088 31.9219 21.911 31.9219 21.9133C31.1532 23.2909 30.0574 24.4583 28.7311 25.3126C27.4048 26.1668 25.8887 26.6817 24.3165 26.8117L24.3079 26.8203H24.2993C23.7619 26.8732 23.2204 26.8704 22.6836 26.8117C20.6063 26.6347 18.642 25.7901 17.0845 24.4041C15.527 23.0182 14.4599 21.1653 14.0428 19.1226C13.6257 17.0799 13.8809 14.957 14.7703 13.0713C15.6597 11.1857 17.1356 9.63858 18.9772 8.66128C20.8188 7.68399 22.9273 7.32901 24.9874 7.64942C27.0476 7.96983 28.9486 8.94842 30.4065 10.4389C31.8643 11.9294 32.8005 13.8516 33.0752 15.9183C33.3499 17.985 32.9484 20.0851 31.9305 21.9047Z" fill="#F47721"/>
<path d="M46.6 42.3148L43.3687 37.3047C41.057 33.7383 38.7482 30.1661 36.4422 26.5883C36.6226 26.5195 36.8289 26.4422 37.0351 26.3734C37.5009 26.2802 37.9435 26.0954 38.3374 25.8299C38.7312 25.5644 39.0685 25.2233 39.3297 24.8266C39.4757 24.3779 39.5319 23.9049 39.495 23.4345C39.4582 22.9641 39.329 22.5056 39.1148 22.0852C38.9128 21.6453 38.8045 21.1683 38.7969 20.6844C39.0097 20.2707 39.3051 19.9051 39.6648 19.6102C40.0474 19.3205 40.3689 18.958 40.6107 18.5435C40.8526 18.1291 41.0101 17.6709 41.0742 17.1953C41.0111 16.7207 40.8539 16.2634 40.6119 15.8502C40.3699 15.437 40.0479 15.0763 39.6648 14.7891C39.3064 14.4894 39.0114 14.1213 38.7969 13.7063C38.8045 13.2223 38.9128 12.7453 39.1148 12.3055C39.3288 11.8865 39.4579 11.4295 39.4948 10.9605C39.5317 10.4915 39.4756 10.0199 39.3297 9.57266C39.0678 9.17656 38.7303 8.83603 38.3365 8.57059C37.9428 8.30515 37.5006 8.12001 37.0351 8.02578C36.5723 7.9087 36.1371 7.70135 35.7547 7.41563C35.5645 6.97831 35.4595 6.50871 35.4453 6.03203C35.4582 5.55842 35.3776 5.08691 35.208 4.64451C35.0384 4.20211 34.7832 3.79751 34.457 3.45391C33.6356 2.97036 32.6563 2.83134 31.7328 3.06719C31.2651 3.16374 30.7826 3.16374 30.3148 3.06719C29.9549 2.76565 29.6596 2.3944 29.4469 1.97578C29.2514 1.53724 28.9707 1.14195 28.6211 0.81294C28.2714 0.48393 27.8598 0.22777 27.4101 0.0593761C26.9445 0.0193478 26.4756 0.071618 26.0303 0.213189C25.5849 0.354761 25.1719 0.582849 24.8148 0.884376C24.4245 1.18188 23.9768 1.39547 23.5 1.51172C23.0231 1.39547 22.5755 1.18188 22.1851 0.884376C21.8294 0.583512 21.4178 0.355776 20.974 0.21421C20.5301 0.0726439 20.0627 0.0200281 19.5984 0.0593761C19.1469 0.226289 18.7334 0.481823 18.3821 0.810939C18.0309 1.14005 17.749 1.53611 17.5531 1.97578C17.34 2.3918 17.0482 2.76246 16.6937 3.06719C16.2231 3.1636 15.7378 3.1636 15.2672 3.06719C14.3465 2.83123 13.3698 2.97031 12.5515 3.45391C12.2217 3.7971 11.9636 4.20265 11.7924 4.64681C11.6213 5.09098 11.5404 5.56483 11.5547 6.04063C11.5459 6.51614 11.4376 6.98454 11.2367 7.41563C10.862 7.70183 10.4318 7.90671 9.97342 8.01719C9.03125 8.2077 8.20304 8.76396 7.6703 9.56406C7.52427 10.0127 7.46808 10.4858 7.50495 10.9561C7.54181 11.4265 7.671 11.885 7.88514 12.3055C8.08714 12.7453 8.19542 13.2223 8.20311 13.7063C7.9886 14.1213 7.69353 14.4894 7.33514 14.7891C6.95203 15.0763 6.63006 15.437 6.38806 15.8502C6.14606 16.2634 5.9889 16.7207 5.92577 17.1953C5.98984 17.6709 6.14736 18.1291 6.38924 18.5435C6.63112 18.958 6.95259 19.3205 7.33514 19.6102C7.69484 19.9051 7.99025 20.2707 8.20311 20.6844C8.19542 21.1683 8.08714 21.6453 7.88514 22.0852C7.67116 22.5041 7.54203 22.9612 7.50517 23.4301C7.4683 23.8991 7.52441 24.3707 7.6703 24.818C7.93012 25.2159 8.267 25.5578 8.66109 25.8235C9.05517 26.0892 9.49847 26.2732 9.96483 26.3648C10.1625 26.4422 10.3687 26.5109 10.5578 26.5883C8.24608 30.1633 5.93722 33.7354 3.63123 37.3047L0.399983 42.3148C0.306778 42.4552 0.25778 42.6203 0.259312 42.7888C0.260844 42.9573 0.312835 43.1215 0.408577 43.2602C0.501944 43.3988 0.633997 43.5069 0.788318 43.5711C0.942638 43.6352 1.11242 43.6526 1.27655 43.6211L7.14608 42.5297L8.57264 48.3391C8.61406 48.5014 8.70202 48.648 8.82569 48.761C8.94936 48.874 9.10335 48.9484 9.26873 48.975C9.31394 48.9849 9.35997 48.9907 9.40623 48.9922C9.55025 48.9931 9.69213 48.9573 9.81845 48.8882C9.94477 48.819 10.0514 48.7187 10.1281 48.5969L19.3922 34.2539C19.4609 34.2711 19.5211 34.3141 19.5898 34.3312C19.7306 34.3648 19.8748 34.3821 20.0195 34.3828C20.8084 34.2959 21.5579 33.9925 22.1851 33.5062C22.5755 33.2087 23.0231 32.9952 23.5 32.8789C23.9768 32.9952 24.4245 33.2087 24.8148 33.5062C25.1721 33.8102 25.5864 34.0397 26.0336 34.1813C26.4807 34.323 26.9516 34.374 27.4187 34.3312C27.4875 34.3141 27.5476 34.2711 27.6078 34.2539L36.8719 48.5969C36.9486 48.7187 37.0552 48.819 37.1815 48.8882C37.3078 48.9573 37.4497 48.9931 37.5937 48.9922C37.64 48.9907 37.686 48.9849 37.7312 48.975C37.8966 48.9484 38.0506 48.874 38.1743 48.761C38.298 48.648 38.3859 48.5014 38.4273 48.3391L39.8539 42.5297L45.7234 43.6211C45.8875 43.6517 46.057 43.6339 46.2111 43.5698C46.3653 43.5057 46.4974 43.3981 46.5914 43.2602C46.6871 43.1215 46.7391 42.9573 46.7407 42.7888C46.7422 42.6203 46.6932 42.4552 46.6 42.3148ZM9.76717 45.9844L8.6242 41.3352C8.57285 41.1219 8.44189 40.9363 8.25815 40.8165C8.07441 40.6967 7.85179 40.6516 7.63592 40.6906L2.92655 41.5672L5.07498 38.2414C7.22342 34.907 9.37759 31.5727 11.5375 28.2383C11.5468 28.2778 11.5526 28.3181 11.5547 28.3586C11.5417 28.8322 11.6224 29.3037 11.792 29.7461C11.9615 30.1885 12.2167 30.5931 12.543 30.9367C13.3645 31.4198 14.3436 31.5588 15.2672 31.3234C15.7349 31.2269 16.2174 31.2269 16.6851 31.3234C17.0471 31.623 17.3428 31.9947 17.5531 32.4148C17.7164 32.6641 17.8797 32.9133 18.0515 33.1539L9.76717 45.9844ZM27.2812 32.4836C27.2118 32.5624 27.1229 32.6217 27.0234 32.6555C26.7828 32.707 26.1469 32.3203 25.7344 32.0539C25.0882 31.5522 24.3139 31.2424 23.5 31.1602C22.6861 31.2424 21.9117 31.5522 21.2656 32.0539C20.8531 32.3203 20.2172 32.7156 19.9851 32.6641C19.8798 32.6237 19.7855 32.5589 19.7101 32.475C19.444 32.1772 19.2106 31.8516 19.014 31.5039C18.6584 30.7946 18.1143 30.197 17.4414 29.7766C17.0507 29.5987 16.6243 29.5134 16.1953 29.5273C15.8216 29.5346 15.4486 29.5633 15.0781 29.6133C14.5453 29.6734 13.8234 29.7594 13.6172 29.5961C13.4109 29.4328 13.325 28.7023 13.2648 28.1695C13.2544 27.3648 13.0192 26.579 12.5859 25.9008C12.5175 25.815 12.4397 25.7371 12.3539 25.6688C12.3211 25.6409 12.2867 25.6151 12.2508 25.5914L12.2422 25.5828H12.2336C11.7198 25.2071 11.1438 24.9249 10.532 24.7492C10.025 24.5688 9.33748 24.3281 9.21717 24.0703C9.09686 23.8297 9.33748 23.1508 9.50936 22.6523C9.8536 21.9215 9.98181 21.1075 9.87889 20.3063C9.62652 19.5536 9.16438 18.8887 8.54686 18.3898C8.16873 18.0117 7.64452 17.4875 7.64452 17.1953C7.64452 16.9031 8.16873 16.3789 8.54686 16.0008C9.16438 15.5019 9.62652 14.837 9.87889 14.0844C9.98181 13.2831 9.8536 12.4691 9.50936 11.7383C9.33748 11.2398 9.09686 10.5609 9.21717 10.3117C9.33748 10.0625 10.0336 9.82188 10.5406 9.64141C11.3153 9.45926 12.0219 9.05975 12.5773 8.48984C13.017 7.81729 13.2555 7.03317 13.2648 6.22969C13.325 5.69688 13.4023 4.975 13.6172 4.80313C13.832 4.63125 14.5453 4.71719 15.0781 4.77735C15.8656 4.94511 16.6844 4.88854 17.4414 4.61406C18.1164 4.19611 18.6611 3.59782 19.014 2.88672C19.2976 2.42266 19.693 1.79531 19.9765 1.73516C20.2172 1.675 20.8531 2.07891 21.2656 2.33672C21.9117 2.83845 22.6861 3.14818 23.5 3.23047C24.3139 3.14818 25.0882 2.83845 25.7344 2.33672C26.1469 2.07891 26.7742 1.6836 27.0234 1.73516C27.307 1.79531 27.7023 2.42266 27.9859 2.88672C28.3389 3.59782 28.8836 4.19611 29.5586 4.61406C30.3155 4.88854 31.1343 4.94511 31.9219 4.77735C32.4547 4.71719 33.1765 4.63125 33.3828 4.79453C33.589 4.95781 33.675 5.68828 33.7351 6.22109C33.7456 7.02583 33.9808 7.81163 34.414 8.48984C34.9777 9.05972 35.6889 9.46144 36.468 9.65C36.975 9.82188 37.6625 10.0625 37.7828 10.3203C37.9031 10.5609 37.6625 11.2398 37.4906 11.7383C37.1464 12.4691 37.0182 13.2831 37.1211 14.0844C37.3734 14.837 37.8356 15.5019 38.4531 16.0008C38.8312 16.3789 39.3555 16.9031 39.3555 17.1953C39.3555 17.4875 38.8312 18.0117 38.4531 18.3898C37.8356 18.8887 37.3734 19.5536 37.1211 20.3063C37.0182 21.1075 37.1464 21.9215 37.4906 22.6523C37.6625 23.1508 37.9031 23.8297 37.7828 24.0789C37.6625 24.3281 36.9664 24.5773 36.468 24.7492C35.8244 24.925 35.2206 25.2226 34.689 25.6258C34.5938 25.711 34.5047 25.8029 34.4226 25.9008C33.9829 26.5733 33.7444 27.3575 33.7351 28.1609C33.675 28.6937 33.5976 29.4156 33.3828 29.5875C33.168 29.7594 32.4547 29.6734 31.9219 29.6133C31.1346 29.4412 30.3146 29.4979 29.5586 29.7766C28.8857 30.197 28.3415 30.7946 27.9859 31.5039C27.7873 31.8551 27.551 32.1836 27.2812 32.4836ZM39.364 40.6906C39.1482 40.6516 38.9256 40.6967 38.7418 40.8165C38.5581 40.9363 38.4271 41.1219 38.3758 41.3352L37.2328 45.9844L28.9484 33.1539C29.1203 32.9133 29.2836 32.6641 29.4469 32.4148C29.6575 31.9972 29.9497 31.6261 30.3062 31.3234C30.7769 31.227 31.2622 31.227 31.7328 31.3234C32.6535 31.5594 33.6302 31.4203 34.4484 30.9367C34.7775 30.5947 35.0352 30.1906 35.2063 29.748C35.3775 29.3053 35.4587 28.833 35.4453 28.3586C35.4468 28.318 35.4526 28.2777 35.4625 28.2383C37.6195 31.5727 39.7737 34.907 41.925 38.2414L44.0734 41.5672L39.364 40.6906Z" fill="#F47721"/>
</svg>
