<svg width="30" height="31" viewBox="0 0 30 31" fill="none" xmlns="http://www.w3.org/2000/svg">
<g clip-path="url(#clip0_69_1476)">
<path d="M15 0.96875C6.97266 0.96875 0.46875 7.47266 0.46875 15.5C0.46875 23.5273 6.97266 30.0312 15 30.0312C23.0273 30.0312 29.5312 23.5273 29.5312 15.5C29.5312 7.47266 23.0273 0.96875 15 0.96875ZM20.4193 19.3086L19.2475 20.7734C19.1706 20.8696 19.0755 20.9496 18.9676 21.009C18.8598 21.0684 18.7413 21.106 18.6189 21.1196C18.4965 21.1332 18.3727 21.1226 18.2544 21.0883C18.1362 21.0541 18.0258 20.9968 17.9297 20.9199L14.0039 18.0066C13.7296 17.787 13.5082 17.5085 13.3561 17.1918C13.2039 16.875 13.125 16.5281 13.125 16.1768V7.0625C13.125 6.81386 13.2238 6.5754 13.3996 6.39959C13.5754 6.22377 13.8139 6.125 14.0625 6.125H15.9375C16.1861 6.125 16.4246 6.22377 16.6004 6.39959C16.7762 6.5754 16.875 6.81386 16.875 7.0625V15.5L20.2734 17.9902C20.3696 18.0672 20.4497 18.1623 20.5091 18.2703C20.5685 18.3782 20.606 18.4967 20.6196 18.6192C20.6331 18.7416 20.6224 18.8655 20.5881 18.9838C20.5537 19.1021 20.4964 19.2125 20.4193 19.3086Z" fill="#F47721"/>
</g>
<defs>
<clipPath id="clip0_69_1476">
<rect width="30" height="30" fill="white" transform="translate(0 0.5)"/>
</clipPath>
</defs>
</svg>
