<svg width="30" height="31" viewBox="0 0 30 31" fill="none" xmlns="http://www.w3.org/2000/svg">
<path d="M21.5625 14.5625C17.4375 14.5625 14.0625 17.9375 14.0625 22.0625C14.0625 26.1875 17.4375 29.5625 21.5625 29.5625C25.6875 29.5625 29.0625 26.1875 29.0625 22.0625C29.0625 17.9375 25.6875 14.5625 21.5625 14.5625ZM25.0313 22.625L22.2188 25.5313C22.125 25.625 22.0312 25.7188 21.9375 25.7188C21.8437 25.8125 21.6562 25.8125 21.5625 25.8125C21.4688 25.8125 21.2813 25.8125 21.1875 25.7188C21.0938 25.625 21 25.625 20.9062 25.5313L18.0937 22.625C17.7187 22.25 17.7187 21.6875 18.0937 21.3125C18.4687 20.9375 19.0313 20.9375 19.4063 21.3125L20.625 22.5312V18.3125C20.625 17.75 21 17.375 21.5625 17.375C22.125 17.375 22.5 17.75 22.5 18.3125V22.5312L23.7187 21.3125C24.0937 20.9375 24.6563 20.9375 25.0313 21.3125C25.4063 21.6875 25.4063 22.25 25.0313 22.625Z" fill="#F47721"/>
<path d="M12.1875 22.0625C12.1875 20.75 12.4688 19.4375 13.0312 18.3125C12.8438 18.3125 12.6562 18.2187 12.5625 18.125L11.0625 16.8125L6.28125 20.9375C6.09375 21.0312 5.8125 21.125 5.625 21.125C5.34375 21.125 5.0625 21.0313 4.875 20.8438C4.5 20.4688 4.59375 19.9062 4.96875 19.5312L9.5625 15.5938L4.96875 11.6562C4.59375 11.2812 4.5 10.7188 4.875 10.3438C5.25 9.96875 5.8125 9.875 6.1875 10.25L13.0312 16.25L19.875 10.25C20.25 9.875 20.8125 9.96875 21.1875 10.3438C21.5625 10.7188 21.4688 11.2812 21.0938 11.6562L19.6875 12.875C20.25 12.7812 20.9062 12.6875 21.5625 12.6875C22.875 12.6875 24.1875 12.9688 25.3125 13.4375V8.9375C25.3125 7.34375 24.0938 6.125 22.5 6.125H3.75C2.15625 6.125 0.9375 7.34375 0.9375 8.9375V22.0625C0.9375 23.6562 2.15625 24.875 3.75 24.875H12.6562C12.375 24.0312 12.1875 23 12.1875 22.0625Z" fill="#F47721"/>
</svg>
