<svg width="25" height="24" viewBox="0 0 25 24" fill="none" xmlns="http://www.w3.org/2000/svg">
<path d="M20.7908 10.999H22.7908C22.7908 5.869 18.9178 2 13.7808 2V4C17.8428 4 20.7908 6.943 20.7908 10.999Z" fill="#F47721"/>
<path d="M13.7908 7.99999C15.8938 7.99999 16.7908 8.89699 16.7908 11H18.7908C18.7908 7.77499 17.0158 5.99999 13.7908 5.99999V7.99999ZM17.2128 13.443C17.0207 13.2683 16.7682 13.1752 16.5086 13.1832C16.2491 13.1912 16.0028 13.2998 15.8218 13.486L13.4288 15.947C12.8528 15.837 11.6948 15.476 10.5028 14.287C9.31081 13.094 8.94981 11.933 8.84281 11.361L11.3018 8.96699C11.4882 8.78612 11.5969 8.53982 11.605 8.2802C11.613 8.02059 11.5197 7.76804 11.3448 7.57599L7.64981 3.51299C7.47485 3.32035 7.23169 3.2035 6.97196 3.18725C6.71224 3.17101 6.45641 3.25665 6.25881 3.42599L4.08881 5.28699C3.91592 5.46051 3.81273 5.69145 3.79881 5.93599C3.78381 6.18599 3.49781 12.108 8.08981 16.702C12.0958 20.707 17.1138 21 18.4958 21C18.6978 21 18.8218 20.994 18.8548 20.992C19.0993 20.9783 19.3301 20.8747 19.5028 20.701L21.3628 18.53C21.5323 18.3325 21.6181 18.0768 21.602 17.817C21.586 17.5573 21.4693 17.3141 21.2768 17.139L17.2128 13.443Z" fill="#F47721"/>
</svg>
