<svg width="55" height="55" viewBox="0 0 55 55" fill="none" xmlns="http://www.w3.org/2000/svg">
<path d="M52.3531 29.2187C52.3124 29.1136 52.2477 29.0194 52.164 28.9437L49.9812 26.7438L27.9984 4.8125C27.8944 4.70347 27.7625 4.625 27.6171 4.58561C27.4717 4.54622 27.3182 4.54742 27.1734 4.58906L9.60779 8.97187C9.45582 9.01379 9.31734 9.09442 9.20587 9.20589C9.0944 9.31736 9.01377 9.45585 8.97185 9.60781L8.09529 13.1484C7.83423 12.9084 7.61878 12.623 7.45935 12.3062C6.91384 11.201 6.80342 9.93122 7.14998 8.74844C7.49373 6.89219 7.87185 4.77812 3.83279 2.68125C3.63619 2.60656 3.41902 2.60656 3.22241 2.68124C3.02581 2.75593 2.86342 2.90011 2.76599 3.0865C2.66856 3.27288 2.64286 3.48852 2.69376 3.69258C2.74466 3.89664 2.86862 4.07495 3.04216 4.19375C5.94685 5.72344 5.75779 6.7375 5.4656 8.43906C5.04968 10.0022 5.21455 11.6632 5.92966 13.1141C6.31776 13.8858 6.91285 14.5345 7.64841 14.9875L4.58904 27.1734C4.54739 27.3182 4.5462 27.4717 4.58559 27.6171C4.62498 27.7626 4.70344 27.8944 4.81248 27.9984L26.7781 49.9812L28.9781 52.1641C29.0537 52.2477 29.1479 52.3124 29.2531 52.3531C29.3606 52.3775 29.4722 52.3775 29.5797 52.3531C29.687 52.3787 29.7989 52.3787 29.9062 52.3531C30.0167 52.3131 30.1166 52.2485 30.1984 52.1641L52.164 30.1984C52.2484 30.1167 52.3131 30.0167 52.3531 29.9062C52.4004 29.7978 52.4248 29.6808 52.4248 29.5625C52.4248 29.4442 52.4004 29.3272 52.3531 29.2187ZM9.22966 15.6578C9.72516 15.7753 10.2329 15.833 10.7422 15.8297C10.9767 15.8467 11.2123 15.8467 11.4468 15.8297C11.6672 16.2288 11.9709 16.5759 12.3372 16.8474C12.7036 17.1189 13.124 17.3084 13.57 17.4031C14.016 17.4978 14.4772 17.4955 14.9222 17.3963C15.3673 17.2971 15.7858 17.1033 16.1493 16.8281C16.5129 16.553 16.813 16.2028 17.0294 15.8015C17.2457 15.4001 17.3732 14.9569 17.4032 14.5019C17.4332 14.047 17.365 13.5909 17.2032 13.1646C17.0415 12.7383 16.7899 12.3518 16.4656 12.0312C16.0325 11.595 15.4822 11.2936 14.8814 11.1637C14.2806 11.0337 13.6549 11.0806 13.0802 11.2989C12.5056 11.5171 12.0064 11.8973 11.6433 12.3933C11.2802 12.8893 11.0687 13.48 11.0344 14.0937C10.5726 14.1229 10.109 14.0824 9.65935 13.9734L10.5187 10.5359L27.1218 6.35938L48.125 27.3969L27.3968 48.125L6.35935 27.1219L9.22966 15.6578ZM14.8156 13.5953L13.9906 12.7703H14.1969C14.4866 12.7724 14.7694 12.8596 15.01 13.021C15.2507 13.1825 15.4385 13.4112 15.5502 13.6786C15.662 13.946 15.6926 14.2403 15.6384 14.525C15.5842 14.8096 15.4475 15.0721 15.2453 15.2797C15.0043 15.5128 14.692 15.6582 14.3585 15.6925C14.025 15.7268 13.6896 15.648 13.4062 15.4688C13.8008 15.3632 14.1859 15.2252 14.5578 15.0562C14.685 14.9995 14.7966 14.9126 14.8828 14.8032C14.969 14.6937 15.0273 14.5649 15.0526 14.4279C15.078 14.2909 15.0697 14.1498 15.0284 14.0167C14.9871 13.8837 14.9141 13.7626 14.8156 13.6641V13.5953ZM29.5797 50.3422L28.6 49.3625L49.3625 28.6L50.3422 29.5797L29.5797 50.3422Z" fill="#F47721"/>
<path d="M27.6202 34.5984H27.8608C27.9691 34.5668 28.0702 34.5142 28.1582 34.4436C28.2462 34.3729 28.3194 34.2856 28.3737 34.1867C28.428 34.0877 28.4622 33.979 28.4745 33.8668C28.4867 33.7547 28.4768 33.6412 28.4452 33.5328L23.6155 16.3969C23.585 16.284 23.5326 16.1783 23.4613 16.0857C23.3899 15.9931 23.3011 15.9154 23.1997 15.8572C23.0984 15.7989 22.9865 15.7612 22.8706 15.7462C22.7547 15.7311 22.6369 15.7391 22.5241 15.7695C22.4112 15.8 22.3055 15.8524 22.2129 15.9237C22.1203 15.9951 22.0426 16.084 21.9844 16.1853C21.9261 16.2867 21.8884 16.3985 21.8734 16.5144C21.8583 16.6303 21.8663 16.7481 21.8967 16.8609L26.7436 34.0484C26.8077 34.2246 26.9287 34.3743 27.0875 34.4739C27.2462 34.5736 27.4337 34.6174 27.6202 34.5984Z" fill="#F47721"/>
<path d="M16.792 23.5984C16.2351 24.153 15.8553 24.8604 15.7008 25.6311C15.5463 26.4017 15.6239 27.2008 15.9239 27.9273C16.2239 28.6537 16.7328 29.2748 17.3861 29.7118C18.0394 30.1488 18.8076 30.382 19.5936 30.382C20.3796 30.382 21.1478 30.1488 21.8011 29.7118C22.4544 29.2748 22.9633 28.6537 23.2633 27.9273C23.5633 27.2008 23.641 26.4017 23.4864 25.6311C23.3319 24.8604 22.9521 24.153 22.3952 23.5984C21.6446 22.8698 20.6397 22.4622 19.5936 22.4622C18.5475 22.4622 17.5426 22.8698 16.792 23.5984ZM21.192 27.9813C20.9314 28.2454 20.6095 28.4411 20.255 28.5509C19.9005 28.6606 19.5244 28.681 19.1601 28.6103C18.7958 28.5396 18.4546 28.3799 18.1669 28.1455C17.8792 27.9111 17.6539 27.6092 17.5111 27.2666C17.3683 26.9241 17.3123 26.5516 17.3482 26.1823C17.3841 25.8129 17.5107 25.4581 17.7168 25.1495C17.9229 24.8409 18.2021 24.588 18.5295 24.4134C18.857 24.2387 19.2225 24.1477 19.5936 24.1484C20.191 24.1506 20.7641 24.3848 21.192 24.8016C21.6047 25.2279 21.8355 25.798 21.8355 26.3914C21.8355 26.9848 21.6047 27.5549 21.192 27.9813Z" fill="#F47721"/>
<path d="M30.7827 27.9469C31.4382 27.9516 32.0847 27.794 32.6644 27.488C33.2441 27.1821 33.7391 26.7374 34.1051 26.1936C34.4711 25.6498 34.6968 25.0238 34.762 24.3716C34.8272 23.7193 34.7299 23.0611 34.4787 22.4556C34.2276 21.8501 33.8305 21.3162 33.3228 20.9016C32.8151 20.4869 32.2126 20.2045 31.5692 20.0793C30.9257 19.9542 30.2613 19.9904 29.6352 20.1846C29.0091 20.3787 28.4409 20.7249 27.9811 21.1922C27.6053 21.5681 27.3096 22.0162 27.1116 22.5095C26.9137 23.0028 26.8178 23.5311 26.8296 24.0625C26.8318 25.1111 27.2453 26.117 27.9811 26.8641C28.7352 27.5811 29.7424 27.9705 30.7827 27.9469ZM29.2186 22.3438C29.6393 21.9265 30.2074 21.6918 30.7999 21.6906C31.3976 21.691 31.9714 21.9254 32.3983 22.3438C32.8268 22.7654 33.0703 23.34 33.0751 23.9411C33.0799 24.5423 32.8458 25.1207 32.4241 25.5492C32.0025 25.9777 31.4279 26.2212 30.8267 26.226C30.2256 26.2308 29.6471 25.9967 29.2186 25.575C29.0081 25.3696 28.8416 25.1235 28.7293 24.8516C28.617 24.5797 28.5613 24.2879 28.5655 23.9938C28.5559 23.6887 28.6089 23.3849 28.7213 23.1011C28.8336 22.8174 29.0029 22.5596 29.2186 22.3438Z" fill="#F47721"/>
</svg>
