<svg width="68" height="80" viewBox="0 0 68 80" fill="none" xmlns="http://www.w3.org/2000/svg">
<path d="M56.4366 22.1245L59.0405 18.9092L61.4864 20.8867C61.9824 21.2875 62.7327 21.2083 63.1339 20.713C65.7032 17.5403 65.1954 12.7525 62.0229 10.1875C58.813 7.59266 54.0886 8.09062 51.4913 11.2977C51.0894 11.7941 51.1686 12.545 51.6652 12.9466L54.1097 14.923L51.3649 18.3125C47.1561 15.7336 42.3333 14.0631 37.1708 13.5739V7.29734H41.1904C43.1758 7.29734 44.8389 5.63375 44.8389 3.64875C44.8389 1.66328 43.1761 0 41.1905 0H34.4688C32.9574 0 32.9574 2.34375 34.4688 2.34375H41.1905C42.8694 2.34375 42.8725 4.95344 41.1905 4.95344H26.8097C25.1308 4.95344 25.1277 2.34375 26.8097 2.34375H29.1563C30.6677 2.34375 30.6677 0 29.1563 0H26.8096C24.8241 0 23.161 1.66359 23.161 3.64859C23.161 5.63375 24.8238 7.29719 26.8096 7.29719H30.8291V13.5747C16.3236 14.96 4.17098 25.7466 1.31332 40.2422C1.18816 40.8772 1.60145 41.4934 2.23645 41.6186C2.87113 41.7442 3.4877 41.3305 3.61285 40.6955C6.46066 26.2502 19.2404 15.7658 34 15.7658C51.0779 15.7658 64.9718 29.6478 64.9718 46.7109C64.9718 63.7741 51.0779 77.6562 34 77.6562C16.9222 77.6562 3.02832 63.7742 3.02832 46.7111C3.02832 46.0639 2.50363 45.5392 1.85645 45.5392C1.20926 45.5392 0.68457 46.0639 0.68457 46.7111C0.68457 65.0666 15.6299 80 34 80C52.3702 80 67.3155 65.0666 67.3155 46.7111C67.3155 36.983 63.1172 28.2167 56.4366 22.1245ZM60.5494 12.01C61.6175 12.8736 62.2852 14.1011 62.4293 15.4663C62.5314 16.4345 62.3616 17.3898 61.946 18.2442L59.6044 16.3511L59.6043 16.3509L59.6041 16.3508L56.4963 13.8383L54.156 11.9461C55.9999 10.5145 58.6574 10.4806 60.5494 12.01ZM55.9325 16.3966L57.2178 17.4358L54.6499 20.6067C54.2178 20.2647 53.7774 19.9328 53.3285 19.6122L55.9325 16.3966ZM33.173 13.4331V7.29719H34.8272V13.4327C34.5522 13.4259 34.2766 13.4222 34.0002 13.4222C33.7236 13.422 33.448 13.4264 33.173 13.4331Z" fill="#E53F29"/>
<path d="M51.2895 68.2579C57.8664 62.9823 61.6383 55.1287 61.6383 46.711C61.6383 31.4832 49.2397 19.0945 33.9999 19.0945C18.76 19.0945 6.36157 31.4832 6.36157 46.711C6.36157 61.9389 18.7602 74.3275 34 74.3275C37.8577 74.3275 41.5909 73.5484 45.0956 72.0117C46.4799 71.4048 45.5386 69.2582 44.1545 69.8653C40.9483 71.271 37.5319 71.9839 34.0002 71.9839C20.0527 71.9839 8.70548 60.6465 8.70548 46.711C8.70548 32.7756 20.0525 21.4382 34 21.4382C47.9475 21.4382 59.2947 32.7756 59.2947 46.711C59.2947 54.4142 55.8424 61.6014 49.8231 66.4296C48.6441 67.3754 50.1105 69.2034 51.2895 68.2579Z" fill="#E53F29"/>
<path d="M54.3223 46.711C54.3223 41.3316 52.203 36.2516 48.3549 32.4066C44.5071 28.5621 39.4234 26.4446 34.0402 26.4446H33.9648C33.6538 26.4455 33.356 26.57 33.137 26.7907C32.9179 27.0113 32.7954 27.3099 32.7966 27.6208L32.8684 46.7152C32.8709 47.3607 33.3948 47.8827 34.0402 47.8827H53.1505C53.7976 47.8829 54.3223 47.3582 54.3223 46.711ZM35.2076 45.5391L35.1448 28.8222C39.4902 29.0891 43.5577 30.9268 46.6982 34.0647C49.8221 37.186 51.6584 41.2235 51.9402 45.5393H35.2076V45.5391Z" fill="#E53F29"/>
<path d="M26.1358 34.362C27.0231 34.362 27.5899 33.3657 27.1494 32.6035L25.3903 29.5591C24.6342 28.2504 22.6048 29.4232 23.3611 30.7318L25.1202 33.7762C25.3372 34.1518 25.7309 34.362 26.1358 34.362Z" fill="#E53F29"/>
<path d="M19.842 39.9657C21.1627 40.7276 22.3205 38.6896 21.0131 37.9356L17.9662 36.1779C16.6572 35.4223 15.4859 37.4529 16.7952 38.2081L19.842 39.9657Z" fill="#E53F29"/>
<path d="M13.6777 46.791C13.6777 47.4382 14.2024 47.9629 14.8496 47.9629H18.3679C19.8793 47.9629 19.8793 45.6191 18.3679 45.6191H14.8496C14.2024 45.6191 13.6777 46.1438 13.6777 46.791Z" fill="#E53F29"/>
<path d="M17.462 57.5395C17.6606 57.5395 17.8622 57.4889 18.0466 57.3825L21.0934 55.6249C22.4027 54.8695 21.2312 52.8394 19.9223 53.5947L16.8755 55.3524C15.8656 55.9349 16.2881 57.5395 17.462 57.5395Z" fill="#E53F29"/>
<path d="M23.9278 64.3711C24.4818 64.6913 25.21 64.4946 25.5287 63.9429L27.2878 60.8985C28.044 59.5899 26.0147 58.4172 25.2586 59.7258L23.4995 62.7702C23.1756 63.3305 23.3675 64.0474 23.9278 64.3711Z" fill="#E53F29"/>
<path d="M32.9482 62.3701V65.8854C32.9482 67.3968 35.292 67.3968 35.292 65.8854V62.3701C35.292 60.8587 32.9482 60.8587 32.9482 62.3701Z" fill="#E53F29"/>
<path d="M41.3589 59.2177C40.7986 59.5414 40.6067 60.2583 40.9307 60.8186L42.6897 63.863C43.4467 65.1735 45.4769 64.0017 44.7189 62.6903L42.9599 59.646C42.6363 59.0855 41.9194 58.8938 41.3589 59.2177Z" fill="#E53F29"/>
<path d="M47.0668 55.4864L50.1136 57.2441C51.4341 58.0062 52.5921 55.968 51.2847 55.2139L48.2379 53.4562C46.929 52.7006 45.7577 54.7312 47.0668 55.4864Z" fill="#E53F29"/>
</svg>
