<svg width="22" height="22" viewBox="0 0 22 22" fill="none" xmlns="http://www.w3.org/2000/svg">
<path d="M11 22C4.9258 22 0 17.0742 0 11C0 4.9258 4.9258 0 11 0C17.0742 0 22 4.9258 22 11C22 17.0742 17.0742 22 11 22Z" fill="#25D366"/>
<path fill-rule="evenodd" clip-rule="evenodd" d="M16.1453 5.87837C14.7813 4.51217 12.9641 3.75977 11.0303 3.75757C7.0461 3.75757 3.8011 7.00037 3.8011 10.9868C3.8011 12.2606 4.1333 13.5058 4.7669 14.6014L3.7417 18.348L7.5741 17.3426C8.6301 17.919 9.8181 18.2226 11.0281 18.2226H11.0303C15.0145 18.2226 18.2573 14.9798 18.2595 10.9934C18.2617 9.06177 17.5115 7.24457 16.1453 5.87837ZM11.0325 17.0016H11.0303C9.9523 17.0016 8.8941 16.7112 7.9723 16.1634L7.7523 16.0336L5.4775 16.6298L6.0847 14.4122L5.9417 14.1856C5.3411 13.2286 5.0221 12.1242 5.0221 10.9868C5.0243 7.67357 7.7193 4.97857 11.0347 4.97857C12.6407 4.97857 14.1477 5.60557 15.2829 6.74077C16.4181 7.87597 17.0429 9.38737 17.0407 10.9912C17.0407 14.3066 14.3435 17.0016 11.0325 17.0016ZM14.3281 12.5004C14.1477 12.4102 13.2589 11.9724 13.0939 11.913C12.9289 11.8536 12.8079 11.8228 12.6869 12.0032C12.5659 12.1836 12.2205 12.5906 12.1149 12.7116C12.0093 12.8326 11.9037 12.848 11.7233 12.7578C11.5429 12.6676 10.9599 12.4762 10.2713 11.8602C9.7345 11.3806 9.3715 10.7888 9.2659 10.6084C9.1603 10.428 9.2549 10.329 9.3451 10.2388C9.4265 10.1574 9.5255 10.0276 9.6157 9.92197C9.7059 9.81637 9.7367 9.74157 9.7961 9.62057C9.8555 9.49957 9.8269 9.39397 9.7807 9.30377C9.7345 9.21357 9.3737 8.32477 9.2241 7.96177C9.0767 7.60977 8.9293 7.65817 8.8171 7.65157C8.7115 7.64717 8.5905 7.64497 8.4717 7.64497C8.3507 7.64497 8.1549 7.69117 7.9899 7.87157C7.8249 8.05197 7.3585 8.48977 7.3585 9.37857C7.3585 10.2674 8.0053 11.1276 8.0955 11.2464C8.1857 11.3674 9.3693 13.1912 11.1821 13.9744C11.6133 14.1614 11.9499 14.2714 12.2117 14.355C12.6451 14.4936 13.0389 14.4738 13.3491 14.4276C13.6967 14.3748 14.4183 13.9898 14.5679 13.5696C14.7175 13.1472 14.7175 12.7864 14.6735 12.7116C14.6295 12.6368 14.5085 12.5928 14.3281 12.5004Z" fill="white"/>
</svg>
