<svg width="22" height="22" viewBox="0 0 22 22" fill="none" xmlns="http://www.w3.org/2000/svg">
<path d="M11 22C17.0751 22 22 17.0751 22 11C22 4.92487 17.0751 0 11 0C4.92487 0 0 4.92487 0 11C0 17.0751 4.92487 22 11 22Z" fill="url(#paint0_linear_77_427)"/>
<path d="M16.3535 6.32906L14.3898 16.2334C14.3898 16.2334 14.1148 16.9209 13.3586 16.59L8.82536 13.1138L7.17536 12.3189L4.39957 11.3865C4.39957 11.3865 3.97418 11.2361 3.93122 10.9052C3.88825 10.5744 4.41247 10.3982 4.41247 10.3982L15.4468 6.07125C15.4468 6.06695 16.3535 5.66734 16.3535 6.32906Z" fill="white"/>
<path d="M8.47197 16.1217C8.47197 16.1217 8.33877 16.1088 8.17549 15.5889C8.01221 15.0689 7.17432 12.3189 7.17432 12.3189L13.8388 8.08652C13.8388 8.08652 14.2255 7.85449 14.2083 8.08652C14.2083 8.08652 14.2771 8.12949 14.0708 8.31856C13.8646 8.51191 8.83721 13.0322 8.83721 13.0322" fill="#D2E4F0"/>
<path d="M10.563 14.4459L8.77077 16.083C8.77077 16.083 8.62894 16.1904 8.47852 16.1216L8.82234 13.0837" fill="#B5CFE4"/>
<defs>
<linearGradient id="paint0_linear_77_427" x1="11" y1="0" x2="11" y2="21.9197" gradientUnits="userSpaceOnUse">
<stop stop-color="#41BCE7"/>
<stop offset="1" stop-color="#22A6DC"/>
</linearGradient>
</defs>
</svg>
