<svg width="22" height="22" viewBox="0 0 22 22" fill="none" xmlns="http://www.w3.org/2000/svg">
<path d="M11 22C4.9258 22 0 17.0742 0 11C0 4.9258 4.9258 0 11 0C17.0742 0 22 4.9258 22 11C22 17.0742 17.0742 22 11 22Z" fill="url(#paint0_linear_77_421)"/>
<path d="M10.9996 4.84421C13.0038 4.84421 13.2414 4.85081 14.0334 4.88821C14.766 4.92121 15.1642 5.04441 15.4282 5.14781C15.778 5.28421 16.0288 5.44701 16.2906 5.70881C16.5524 5.97061 16.7152 6.22141 16.8516 6.57121C16.955 6.83521 17.076 7.23341 17.1112 7.96601C17.1464 8.75801 17.1552 8.99561 17.1552 10.9998C17.1552 13.004 17.1486 13.2416 17.1112 14.0336C17.0782 14.7662 16.955 15.1644 16.8516 15.4284C16.7152 15.7782 16.5524 16.029 16.2906 16.2908C16.0288 16.5526 15.778 16.7154 15.4282 16.8518C15.1642 16.9552 14.766 17.0762 14.0334 17.1114C13.2414 17.1466 13.0038 17.1554 10.9996 17.1554C8.99537 17.1554 8.75777 17.1488 7.96577 17.1114C7.23317 17.0784 6.83497 16.9552 6.57097 16.8518C6.22117 16.7154 5.97037 16.5526 5.70857 16.2908C5.44677 16.029 5.28397 15.7782 5.14757 15.4284C5.04417 15.1644 4.92317 14.7662 4.88797 14.0336C4.85277 13.2416 4.84397 13.004 4.84397 10.9998C4.84397 8.99561 4.85057 8.75801 4.88797 7.96601C4.92097 7.23341 5.04417 6.83521 5.14757 6.57121C5.28397 6.22141 5.44677 5.97061 5.70857 5.70881C5.97037 5.44701 6.22117 5.28421 6.57097 5.14781C6.83497 5.04441 7.23317 4.92341 7.96577 4.88821C8.75777 4.85081 8.99537 4.84421 10.9996 4.84421ZM10.9996 3.49121C8.96017 3.49121 8.70497 3.50001 7.90417 3.53741C7.10557 3.57481 6.55997 3.70021 6.08037 3.88721C5.58757 4.07641 5.16737 4.33381 4.75157 4.75181C4.33357 5.16981 4.07837 5.58781 3.88477 6.08281C3.69997 6.56021 3.57237 7.10581 3.53497 7.90661C3.49757 8.70741 3.48877 8.96261 3.48877 11.002C3.48877 13.0414 3.49757 13.2966 3.53497 14.0974C3.57237 14.896 3.69777 15.4416 3.88477 15.9212C4.07617 16.4118 4.33357 16.832 4.75157 17.2478C5.16957 17.6658 5.58757 17.921 6.08257 18.1146C6.55997 18.2994 7.10557 18.427 7.90637 18.4644C8.70717 18.5018 8.96237 18.5106 11.0018 18.5106C13.0412 18.5106 13.2964 18.5018 14.0972 18.4644C14.8958 18.427 15.4414 18.3016 15.921 18.1146C16.4116 17.9232 16.8318 17.6658 17.2476 17.2478C17.6656 16.8298 17.9208 16.4118 18.1144 15.9168C18.2992 15.4394 18.4268 14.8938 18.4642 14.093C18.5016 13.2922 18.5104 13.037 18.5104 10.9976C18.5104 8.95821 18.5016 8.70301 18.4642 7.90221C18.4268 7.10361 18.3014 6.55801 18.1144 6.07841C17.923 5.58781 17.6656 5.16761 17.2476 4.75181C16.8296 4.33381 16.4116 4.07861 15.9166 3.88501C15.4392 3.70021 14.8936 3.57261 14.0928 3.53521C13.2942 3.50001 13.039 3.49121 10.9996 3.49121Z" fill="white"/>
<path d="M10.9992 7.14331C8.86958 7.14331 7.14258 8.87031 7.14258 10.9999C7.14258 13.1295 8.86958 14.8565 10.9992 14.8565C13.1288 14.8565 14.8558 13.1295 14.8558 10.9999C14.8558 8.87031 13.1288 7.14331 10.9992 7.14331ZM10.9992 13.5035C9.61758 13.5035 8.49558 12.3837 8.49558 10.9999C8.49558 9.61611 9.61758 8.49631 10.9992 8.49631C12.3808 8.49631 13.5028 9.61611 13.5028 10.9999C13.5028 12.3837 12.3808 13.5035 10.9992 13.5035Z" fill="white"/>
<path d="M15.0082 7.89336C15.5064 7.89336 15.9104 7.48952 15.9104 6.99136C15.9104 6.49319 15.5064 6.08936 15.0082 6.08936C14.5099 6.08936 14.106 6.49319 14.106 6.99136C14.106 7.48952 14.5099 7.89336 15.0082 7.89336Z" fill="white"/>
<defs>
<linearGradient id="paint0_linear_77_421" x1="3.22182" y1="18.7782" x2="18.7782" y2="3.22182" gradientUnits="userSpaceOnUse">
<stop stop-color="#FFD521"/>
<stop offset="0.0551048" stop-color="#FFD020"/>
<stop offset="0.1241" stop-color="#FEC01E"/>
<stop offset="0.2004" stop-color="#FCA71B"/>
<stop offset="0.2821" stop-color="#FA8316"/>
<stop offset="0.3681" stop-color="#F85510"/>
<stop offset="0.4563" stop-color="#F51E09"/>
<stop offset="0.5" stop-color="#F30005"/>
<stop offset="0.5035" stop-color="#F20007"/>
<stop offset="0.5966" stop-color="#E1003B"/>
<stop offset="0.6879" stop-color="#D30067"/>
<stop offset="0.7757" stop-color="#C70088"/>
<stop offset="0.8589" stop-color="#BF00A0"/>
<stop offset="0.9357" stop-color="#BB00AF"/>
<stop offset="1" stop-color="#B900B4"/>
</linearGradient>
</defs>
</svg>
