<svg width="22" height="22" viewBox="0 0 22 22" fill="none" xmlns="http://www.w3.org/2000/svg">
<path d="M11 22C17.0751 22 22 17.0751 22 11C22 4.92487 17.0751 0 11 0C4.92487 0 0 4.92487 0 11C0 17.0751 4.92487 22 11 22Z" fill="#3B5998"/>
<path d="M15.125 22V13.75H17.875L18.5625 10.3125H15.125V8.9375C15.125 7.5625 15.8139 6.875 17.1875 6.875H18.5625V3.4375C17.875 3.4375 17.0225 3.4375 15.8125 3.4375C13.2859 3.4375 11.6875 5.41819 11.6875 8.25V10.3125H8.9375V13.75H11.6875V22H15.125Z" fill="white"/>
</svg>
