<svg width="21" height="21" viewBox="0 0 21 21" fill="none" xmlns="http://www.w3.org/2000/svg">
<path d="M10.2148 0.402344L9.48125 0.442188L8.75 0.533594L8.02578 0.678906L7.31797 0.875781L6.62422 1.12422L5.95156 1.42188L5.29766 1.76641L4.67656 2.15781L4.08125 2.59375L3.51875 3.06953L2.99375 3.58516L2.50859 4.13828L2.06328 4.72422L1.66016 5.34297L1.30156 5.98516L0.994531 6.65547L0.732031 7.34219L0.523438 8.04766L0.366406 8.76953L0.258594 9.49844L0.207031 10.232V10.9703L0.258594 11.7016L0.366406 12.4305L0.523438 13.1523L0.732031 13.8555L0.994531 14.5445L1.30156 15.2148L1.66016 15.857L2.06328 16.4758L2.50859 17.0617L2.99375 17.6148L3.51875 18.1305L4.08125 18.6063L4.67656 19.0422L5.29766 19.4336L5.95156 19.7781L6.62422 20.0734L7.31797 20.3242L8.02578 20.5188L8.75 20.6664L9.48125 20.7578L10.2148 20.7977L10.9531 20.7859L11.6867 20.7203L12.4109 20.5984L13.1281 20.4273L13.8289 20.207L14.5133 19.9328L15.1766 19.6117L15.8141 19.2438L16.4258 18.8289L17.0023 18.3719L17.5461 17.8773L18.0523 17.3406L18.5188 16.7711L18.943 16.1711L19.325 15.5406L19.6555 14.882L19.9414 14.2023L20.1758 13.5063L20.3609 12.7914L20.4922 12.0695L20.5719 11.3359L20.6 10.6L20.5719 9.86406L20.4922 9.13047L20.3609 8.40859L20.1758 7.69375L19.9414 6.99766L19.6555 6.31797L19.325 5.65938L18.943 5.02891L18.5188 4.42891L18.0523 3.85703L17.5461 3.32266L17.0023 2.82578L16.4258 2.37109L15.8141 1.95625L15.1766 1.58828L14.5133 1.26719L13.8289 0.995313L13.1281 0.772656L12.4109 0.601563L11.6867 0.482031L10.9531 0.414062L10.2148 0.402344ZM10.5734 1.60234L11.2695 1.64219L11.9609 1.73828L12.643 1.88359L13.3133 2.08516L13.9625 2.33594L14.5953 2.63594L15.1977 2.98516L15.7742 3.38125L16.318 3.81953L16.8242 4.29766L17.293 4.81563L17.7195 5.36641L18.1039 5.94766L18.4414 6.55938L18.7297 7.19453L18.9688 7.85313L19.1586 8.52578L19.2922 9.21016L19.3719 9.90391L19.4 10.6L19.3719 11.2961L19.2922 11.9898L19.1586 12.6742L18.9688 13.3469L18.7297 14.0031L18.4414 14.6383L18.1039 15.25L17.7195 15.8336L17.293 16.3867L16.8242 16.9023L16.318 17.3805L15.7742 17.8188L15.1977 18.2148L14.5953 18.5641L13.9625 18.8641L13.3133 19.1148L12.643 19.3164L11.9609 19.4641L11.2695 19.5578L10.5734 19.5977L9.87734 19.5859L9.18125 19.5156L8.49453 19.3938L7.81953 19.2203L7.15859 18.9953L6.51641 18.7188L5.9 18.3953L5.30938 18.0203L4.74922 17.6055L4.22422 17.1461L3.73438 16.6469L3.28672 16.1125L2.88125 15.5453L2.52031 14.9477L2.20625 14.3242L1.94375 13.6773L1.73047 13.0117L1.56875 12.332L1.46094 11.643L1.40703 10.9492V10.2508L1.46094 9.55469L1.56875 8.86563L1.73047 8.18828L1.94375 7.52266L2.20625 6.87578L2.52031 6.25234L2.88125 5.65469L3.28672 5.08516L3.73438 4.55313L4.22422 4.05391L4.74922 3.59453L5.30938 3.17734L5.9 2.80469L6.51641 2.48125L7.15859 2.20469L7.81953 1.97969L8.49453 1.80391L9.18125 1.68438L9.87734 1.61406L10.5734 1.60234ZM10.4 5.2C7.41766 5.2 5 7.61766 5 10.6C5 13.5823 7.41766 16 10.4 16C11.6136 15.9976 12.7909 15.5864 13.7422 14.8328L13.0016 13.8977C12.2604 14.4822 11.3439 14.8001 10.4 14.8C8.0804 14.8 6.2 12.9196 6.2 10.6C6.2 8.2804 8.0804 6.4 10.4 6.4C11.3437 6.40175 12.2593 6.72126 12.9992 7.30703L13.7469 6.3625C12.7937 5.60962 11.6146 5.20007 10.4 5.2Z" fill="white"/>
</svg>
