<svg width="55" height="55" viewBox="0 0 55 55" fill="none" xmlns="http://www.w3.org/2000/svg">
<path d="M51.4766 25.7812C51.1328 20.7969 49.2422 16.1562 46.2344 12.4609L47.9531 10.7422L51.3906 14.1797V12.1172V3.4375H40.5625L44 6.875L42.2812 8.59375C38.1562 5.41406 33.0859 3.4375 27.5 3.4375C27.2422 3.4375 26.9844 3.4375 26.7266 3.4375C18.2188 3.78125 10.8281 8.42187 6.78906 15.2969C4.64063 18.8203 3.4375 23.0312 3.4375 27.5C3.4375 40.8203 14.1797 51.5625 27.5 51.5625C33.2578 51.5625 38.6719 49.5 42.7969 46.0625C48.125 41.6797 51.5625 35.0625 51.5625 27.5C51.5625 26.9844 51.5625 26.3828 51.4766 25.7812ZM44.6875 5.15625H49.6719V10.1406L47.9531 8.42188L36.5234 19.7656L34.9766 18.2188L46.4062 6.78906L44.6875 5.15625ZM25.9531 5.24219C25.9531 5.41406 25.9531 5.5 25.9531 5.67188C25.9531 6.61719 25.8672 7.90625 25.6094 9.10938C25.5234 9.71094 25.3516 10.2266 25.0938 10.6562C24.9219 11.0859 24.6641 11.4297 24.4062 11.6016C23.4609 12.2891 22.6875 13.0625 22.0859 13.9219C21.4844 14.7813 21.1406 15.7266 21.1406 16.6719C21.1406 17.2734 21.3125 17.875 21.5703 18.3906C21.9141 19.0781 22.1719 19.8516 22.1719 20.625C22.1719 21.5703 21.9141 22.4297 21.3125 23.0312C20.7109 23.7188 19.8516 24.75 19.25 25.7812C18.9062 26.2969 18.5625 26.8125 18.3906 27.3281C18.1328 27.8438 17.9609 28.3594 17.9609 28.9609C17.9609 29.3047 18.0469 29.6484 18.2188 29.9922C18.3906 30.3359 18.5625 30.6797 18.7344 31.0234C18.8203 31.3672 18.9062 31.625 18.9062 31.7109H18.7344C18.7344 31.7109 18.5625 31.7109 18.3906 31.625C18.0469 31.4531 17.5312 31.1953 17.0156 30.7656C16.2422 30.1641 15.4687 29.2188 14.8672 28.3594C14.2656 27.4141 13.9219 26.5547 13.9219 25.8672C13.9219 25.5234 13.9219 25.1797 13.9219 24.8359C13.9219 23.6328 13.9219 22.6016 13.6641 21.6562C13.4922 21.2266 13.3203 20.7109 12.8906 20.3672C12.4609 20.0234 11.9453 19.8516 11.4297 19.8516C11.4297 19.8516 11.3438 19.8516 11.1719 19.7656C10.9141 19.5938 10.5703 19.25 10.2266 18.8203C9.71094 18.1328 9.28125 17.2734 8.9375 16.5859C8.76562 16.2422 8.67969 15.9844 8.59375 15.7266C12.2031 9.88281 18.5625 5.75781 25.9531 5.24219ZM11.6875 43.3125C7.64844 39.2734 5.15625 33.6875 5.15625 27.5C5.15625 23.9766 6.01562 20.625 7.47656 17.6172C7.64844 17.9609 7.82031 18.3047 7.99219 18.6484C8.33594 19.3359 8.76562 20.0234 9.28125 20.5391C9.53906 20.7969 9.79688 21.0547 10.1406 21.2266C10.4844 21.3984 10.8281 21.5703 11.2578 21.5703C11.5156 21.5703 11.6016 21.6562 11.6875 21.6562C11.7734 21.6562 11.7734 21.7422 11.8594 21.9141C11.9453 22.1719 12.0312 22.5156 12.1172 23.0312C12.1172 23.5469 12.2031 24.1484 12.2031 24.75C12.2031 25.0938 12.2031 25.4375 12.2031 25.7812C12.2031 26.7266 12.5469 27.5859 12.9766 28.4453C13.6641 29.7344 14.6953 30.9375 15.7266 31.7969C16.2422 32.2266 16.7578 32.6562 17.2734 32.9141C17.7891 33.1719 18.3047 33.4297 18.8203 33.4297H18.9922C19.4219 33.4297 19.9375 33.2578 20.2812 32.9141C20.4531 32.7422 20.5391 32.5703 20.625 32.3125C20.7109 32.1406 20.7109 31.8828 20.7109 31.7109C20.7109 31.1953 20.5391 30.7656 20.3672 30.3359C20.1953 29.9062 20.0234 29.4766 19.7656 29.1328C19.7656 29.1328 19.7656 29.0469 19.7656 28.9609C19.7656 28.7891 19.8516 28.4453 20.0234 28.0156C20.5391 26.8125 21.8281 25.1797 22.7734 24.1484C23.6328 23.1172 24.0625 21.8281 24.0625 20.625C24.0625 19.5078 23.8047 18.3906 23.2031 17.5312C23.0312 17.2734 22.9453 17.0156 22.9453 16.6719C22.9453 16.1562 23.1172 15.5547 23.5469 14.8672C23.9766 14.1797 24.6641 13.5781 25.4375 12.9766C25.9531 12.5469 26.3828 12.0312 26.6406 11.4297C27.0703 10.4844 27.3281 9.45312 27.4141 8.42188C27.5859 7.39063 27.5859 6.44531 27.5859 5.67188C27.5859 5.5 27.5859 5.32812 27.5859 5.15625C32.6562 5.15625 37.2109 6.875 40.9062 9.71094L32.4844 18.1328L36.4375 22.0859L44.9453 13.5781C47.3516 16.5859 48.8984 20.1953 49.5 24.1484C49.3281 24.0625 49.1562 23.9766 48.9844 23.8906C48.3828 23.6328 47.7812 23.375 47.1797 23.1172C46.5781 22.9453 45.8906 22.7734 45.2891 22.7734C45.0312 22.7734 44.7734 22.7734 44.4297 22.8594C44.1719 22.9453 43.9141 23.1172 43.6562 23.375C43.2266 23.8906 42.5391 24.4062 41.8516 24.8359C41.1641 25.2656 40.4766 25.5234 39.875 25.5234C39.7031 25.5234 39.5312 25.5234 39.4453 25.4375C39.1016 25.3516 38.8438 25.3516 38.5 25.3516C37.4688 25.3516 36.2656 25.6953 35.2344 26.2109C34.7188 26.4688 34.2891 26.8125 33.8594 27.1562C33.5156 27.5859 33.1719 28.1016 33.1719 28.7031C33.1719 28.875 33.1719 29.1328 33.2578 29.3047C33.4297 29.6484 33.4297 30.1641 33.4297 30.6797C33.4297 31.2812 33.3438 31.9688 33.0859 32.4844C32.9141 33 32.5703 33.3438 32.4844 33.3438C32.2266 33.4297 31.7969 33.6016 31.2813 33.8594C30.5078 34.1172 29.5625 34.5469 28.7891 35.0625C28.3594 35.3203 28.0156 35.6641 27.6719 36.0078C27.3281 36.3516 27.0703 36.8672 26.8984 37.3828C26.8125 37.5547 26.8125 37.7266 26.8125 37.9844C26.8125 38.5 26.9844 39.0156 27.3281 39.4453C27.7578 40.0469 28.4453 40.4766 29.2188 40.7344C29.9922 40.9922 30.8516 41.1641 31.8828 41.1641C32.6562 41.1641 33.5156 41.0781 34.2891 40.8203C34.8906 40.6484 35.3203 40.5625 35.75 40.5625C36.6094 40.5625 37.125 40.8203 37.4688 41.25C37.8125 41.6797 38.1562 42.2812 38.2422 42.7969C38.4141 43.3984 38.6719 43.9141 39.1016 44.2578C39.5312 44.7734 40.0469 45.1172 40.4766 45.375C36.7812 48.0391 32.2266 49.6719 27.3281 49.6719C21.3125 49.8438 15.7266 47.3516 11.6875 43.3125ZM42.1094 44.4297C41.8516 44.3438 41.5938 44.1719 41.3359 44C41.0781 43.8281 40.7344 43.5703 40.5625 43.3125C40.3047 43.0547 40.2188 42.7969 40.1328 42.5391C39.9609 41.7656 39.6172 40.9062 38.9297 40.2188C38.2422 39.5312 37.2109 39.0156 35.9219 39.0156C35.3203 39.0156 34.7187 39.1016 34.0312 39.2734C33.3437 39.4453 32.7422 39.5312 32.0547 39.5312C31.0234 39.5312 30.1641 39.2734 29.5625 38.9297C29.3047 38.7578 29.0469 38.5859 28.9609 38.4141C28.875 38.2422 28.7891 38.1562 28.7891 37.9844V37.8125C28.875 37.5547 29.0469 37.2969 29.3906 36.9531C29.9062 36.5234 30.5938 36.0938 31.3672 35.8359C32.1406 35.4922 32.9141 35.2344 33.4297 34.9766C34.2031 34.6328 34.6328 33.9453 34.8906 33.1719C35.1484 32.3984 35.3203 31.625 35.3203 30.7656C35.3203 30.0781 35.2344 29.4766 34.9766 28.875V28.7891C34.9766 28.7891 34.9766 28.6172 35.2344 28.4453C35.4922 28.1016 36.0938 27.7578 36.6953 27.5859C37.2969 27.3281 38.0703 27.1562 38.5859 27.2422C38.7578 27.2422 38.9297 27.2422 39.1016 27.3281C39.4453 27.4141 39.7031 27.4141 40.0469 27.4141C41.0781 27.4141 42.0234 27.0703 42.8828 26.5547C43.7422 26.0391 44.5156 25.4375 45.1172 24.75H45.2031C45.2891 24.75 45.375 24.75 45.4609 24.75C45.8047 24.75 46.2344 24.8359 46.8359 25.0078C47.6094 25.2656 48.5547 25.6953 49.1562 26.0391C49.4141 26.2109 49.6719 26.2969 49.8438 26.3828C49.8438 26.8125 49.9297 27.1562 49.9297 27.5859C49.8438 34.2891 46.8359 40.3047 42.1094 44.4297Z" fill="#F47721"/>
</svg>
