<svg width="55" height="55" viewBox="0 0 55 55" fill="none" xmlns="http://www.w3.org/2000/svg">
<path d="M48.125 48.125H31.7969C30.9169 48.125 30.0025 47.6902 29.0331 47.2295C28.1806 46.8239 27.3006 46.4062 26.6406 46.4062H23.2031C22.7288 46.4062 22.3438 46.0213 22.3438 45.5469C22.3438 45.0725 22.7288 44.6875 23.2031 44.6875H26.6406C27.6873 44.6875 28.7461 45.1911 29.7705 45.6775C30.525 46.035 31.3036 46.4062 31.7969 46.4062H48.125C49.072 46.4062 49.8438 45.6362 49.8438 44.6875C49.8438 43.7388 49.072 42.9688 48.125 42.9688C47.6506 42.9688 47.2656 42.5837 47.2656 42.1094C47.2656 41.635 47.6506 41.25 48.125 41.25H48.9844C49.9314 41.25 50.7031 40.48 50.7031 39.5312C50.7031 38.5825 49.9314 37.8125 48.9844 37.8125C48.51 37.8125 48.125 37.4275 48.125 36.9531C48.125 36.4788 48.51 36.0938 48.9844 36.0938H49.8438C50.7908 36.0938 51.5625 35.3237 51.5625 34.375C51.5625 33.4263 50.7908 32.6562 49.8438 32.6562H48.9844C48.51 32.6562 48.125 32.2712 48.125 31.7969C48.125 31.3225 48.51 30.9375 48.9844 30.9375C49.9314 30.9375 50.7031 30.1675 50.7031 29.2188C50.7031 28.27 49.9314 27.5 48.9844 27.5H32.6494C32.3847 27.5 32.1355 27.378 31.9722 27.17C31.8089 26.962 31.7522 26.6905 31.8158 26.4327C31.8227 26.3983 32.6494 23.0381 32.6494 19.0197C32.6494 14.5492 30.8636 13.872 29.217 13.7689V19.7656C29.217 19.898 29.1861 20.0303 29.1259 20.1506L25.5595 27.2817C25.3464 27.7045 24.8325 27.8798 24.4062 27.6667C23.9817 27.4536 23.8098 26.938 24.0212 26.5134L27.5 19.5628V12.8906C27.5 12.4163 27.885 12.0313 28.3594 12.0313C30.1572 12.0313 34.3698 12.0312 34.3698 19.018C34.3698 21.9037 33.9762 24.4217 33.7133 25.7812H48.9844C50.8802 25.7812 52.4219 27.323 52.4219 29.2188C52.4219 30.0592 52.1177 30.8309 51.6141 31.4291C52.6127 32.0323 53.2812 33.1255 53.2812 34.375C53.2812 35.6245 52.6127 36.7177 51.6141 37.3209C52.1177 37.9191 52.4219 38.6908 52.4219 39.5312C52.4219 40.7808 51.7533 41.8739 50.7547 42.4772C51.2583 43.0753 51.5625 43.847 51.5625 44.6875C51.5625 46.5833 50.0208 48.125 48.125 48.125Z" fill="#F47721"/>
<path d="M23.2908 48.125H17.1875V46.4062H22.3438V30.9375H17.1875V29.2188H23.2908C23.7669 29.2188 24.0625 29.5745 24.0625 30.0472V47.2347C24.0625 47.7125 23.7669 48.125 23.2908 48.125Z" fill="#F47721"/>
<path d="M2.66577 51.5625C2.1914 51.5625 1.8064 51.1775 1.8064 50.7031C1.8064 50.2288 2.1914 49.8438 2.66577 49.8438H17.1875V30.9375H2.66577C2.1914 30.9375 1.8064 30.5525 1.8064 30.0781C1.8064 29.6038 2.1914 29.2188 2.66577 29.2188H18.1345C18.6106 29.2188 18.9062 29.5745 18.9062 30.0472V50.6722C18.9062 51.15 18.6106 51.5625 18.1345 51.5625H2.66577Z" fill="#F47721"/>
<path d="M49.8438 37.8125H41.25C39.3542 37.8125 37.8125 36.2708 37.8125 34.375C37.8125 32.4792 39.3542 30.9375 41.25 30.9375H49.8438C51.7395 30.9375 53.2812 32.4792 53.2812 34.375C53.2812 36.2708 51.7395 37.8125 49.8438 37.8125ZM41.25 32.6562C40.303 32.6562 39.5312 33.4262 39.5312 34.375C39.5312 35.3238 40.303 36.0938 41.25 36.0938H49.8438C50.7908 36.0938 51.5625 35.3238 51.5625 34.375C51.5625 33.4262 50.7908 32.6562 49.8438 32.6562H41.25Z" fill="#F47721"/>
<path d="M48.125 48.125H42.9688C41.073 48.125 39.5312 46.5833 39.5312 44.6875C39.5312 42.7917 41.073 41.25 42.9688 41.25H48.125C50.0208 41.25 51.5625 42.7917 51.5625 44.6875C51.5625 46.5833 50.0208 48.125 48.125 48.125ZM42.9688 42.9688C42.0217 42.9688 41.25 43.7387 41.25 44.6875C41.25 45.6363 42.0217 46.4062 42.9688 46.4062H48.125C49.072 46.4062 49.8438 45.6363 49.8438 44.6875C49.8438 43.7387 49.072 42.9688 48.125 42.9688H42.9688Z" fill="#F47721"/>
<path d="M48.9844 42.9688H42.1094C40.2136 42.9688 38.6719 41.427 38.6719 39.5312C38.6719 37.6355 40.2136 36.0938 42.1094 36.0938H48.9844C50.8802 36.0938 52.4219 37.6355 52.4219 39.5312C52.4219 41.427 50.8802 42.9688 48.9844 42.9688ZM42.1094 37.8125C41.1623 37.8125 40.3906 38.5825 40.3906 39.5312C40.3906 40.48 41.1623 41.25 42.1094 41.25H48.9844C49.9314 41.25 50.7031 40.48 50.7031 39.5312C50.7031 38.5825 49.9314 37.8125 48.9844 37.8125H42.1094Z" fill="#F47721"/>
<path d="M48.9844 32.6562H42.1094C40.2136 32.6562 38.6719 31.1145 38.6719 29.2188C38.6719 27.323 40.2136 25.7812 42.1094 25.7812H48.9844C50.8802 25.7812 52.4219 27.323 52.4219 29.2188C52.4219 31.1145 50.8802 32.6562 48.9844 32.6562ZM42.1094 27.5C41.1623 27.5 40.3906 28.27 40.3906 29.2188C40.3906 30.1675 41.1623 30.9375 42.1094 30.9375H48.9844C49.9314 30.9375 50.7031 30.1675 50.7031 29.2188C50.7031 28.27 49.9314 27.5 48.9844 27.5H42.1094Z" fill="#F47721"/>
<path d="M30.2637 39.6241C29.8735 39.6241 29.5195 39.3576 29.4284 38.9589C29.3201 38.4966 29.6071 38.0359 30.0695 37.9259C32.0632 37.4601 33.5121 35.75 33.947 33.3523C34.387 30.922 33.6324 28.4419 32.1526 27.4536C31.7573 27.1906 31.6507 26.6561 31.9137 26.2625C32.1749 25.8672 32.7077 25.7606 33.1048 26.0236C35.1948 27.4175 36.2123 30.4855 35.6382 33.6583C35.0779 36.752 33.1426 38.9726 30.4613 39.6C30.3943 39.6172 30.329 39.6241 30.2637 39.6241Z" fill="#F47721"/>
<path d="M34.6241 10.0702C34.8905 10.0702 35.1518 9.94812 35.3202 9.71609L37.3415 6.93515C37.6216 6.55015 37.5357 6.0139 37.1524 5.73546C36.7674 5.45703 36.2294 5.53953 35.9527 5.92453L33.9315 8.70546C33.6513 9.09046 33.7373 9.62671 34.1205 9.90515C34.2718 10.0169 34.4471 10.0702 34.6241 10.0702Z" fill="#F47721"/>
<path d="M36.6162 13.3444C36.7348 13.7087 37.0717 13.9391 37.4343 13.9391C37.522 13.9391 37.6114 13.9253 37.699 13.8978L40.9681 12.8356C41.4201 12.6895 41.6676 12.2048 41.5198 11.7528C41.372 11.2991 40.8856 11.0533 40.437 11.2011L37.1679 12.2633C36.7176 12.4077 36.4701 12.8923 36.6162 13.3444Z" fill="#F47721"/>
<path d="M23.5399 17.5931C23.3938 17.1394 22.9074 16.8936 22.4571 17.0414L19.188 18.1036C18.736 18.2497 18.4885 18.7344 18.6363 19.1864C18.7549 19.5508 19.0918 19.7811 19.4544 19.7811C19.5421 19.7811 19.6315 19.7673 19.7191 19.7398L22.9882 18.6777C23.4385 18.5298 23.686 18.0452 23.5399 17.5931Z" fill="#F47721"/>
<path d="M40.9681 18.1036L37.699 17.0414C37.247 16.8936 36.764 17.1411 36.6162 17.5931C36.4701 18.0452 36.7176 18.5298 37.1679 18.6759L40.437 19.7381C40.5246 19.7673 40.614 19.7794 40.7017 19.7794C41.0643 19.7794 41.4012 19.5491 41.5198 19.1847C41.6676 18.7344 41.4201 18.2497 40.9681 18.1036Z" fill="#F47721"/>
<path d="M19.188 12.8339L22.4571 13.8961C22.5447 13.9253 22.6341 13.9373 22.7218 13.9373C23.0844 13.9373 23.4213 13.707 23.5399 13.3427C23.686 12.8906 23.4385 12.4059 22.9882 12.2598L19.7191 11.1977C19.2688 11.0516 18.7841 11.2973 18.6363 11.7494C18.4885 12.2031 18.736 12.6878 19.188 12.8339Z" fill="#F47721"/>
<path d="M24.205 5.92453C23.9265 5.53781 23.3886 5.45703 23.0053 5.73547C22.622 6.01391 22.5361 6.55187 22.8162 6.93516L24.8375 9.71609C25.0059 9.94812 25.2672 10.0702 25.5336 10.0702C25.7089 10.0702 25.8859 10.0169 26.0372 9.90516C26.4205 9.62672 26.5064 9.08875 26.2262 8.70547L24.205 5.92453Z" fill="#F47721"/>
<path d="M30.0781 3.4375C29.6038 3.4375 29.2188 3.8225 29.2188 4.29688V7.73438C29.2188 8.20875 29.6038 8.59375 30.0781 8.59375C30.5525 8.59375 30.9375 8.20875 30.9375 7.73438V4.29688C30.9375 3.8225 30.5525 3.4375 30.0781 3.4375Z" fill="#F47721"/>
</svg>
