<svg width="20" height="20" viewBox="0 0 20 20" fill="none" xmlns="http://www.w3.org/2000/svg">
<path d="M10 0.416748C5.91667 0.416748 2.5 3.83342 2.5 8.00008C2.5 13.4167 8.16667 19.5834 10 19.5834C11.8333 19.5834 17.5 13.4167 17.5 8.00008C17.5 3.83342 14.0833 0.416748 10 0.416748ZM10 12.7501C7.41667 12.7501 5.33333 10.5834 5.33333 8.00008C5.33333 7.00008 5.66667 6.00008 6.25 5.25008C6.33333 5.08341 6.5 5.00008 6.66667 5.08341C6.83333 5.16675 6.91667 5.25008 6.91667 5.41675C7 6.16675 7.58333 6.66675 8.25 6.66675C9 6.66675 9.58333 6.08341 9.58333 5.33341C9.58333 4.83341 9.33333 4.33341 8.83333 4.08341C8.66667 4.00008 8.58333 3.83341 8.58333 3.66675C8.58333 3.50008 8.75 3.33341 8.91667 3.33341C9.25 3.33341 9.66667 3.25008 10 3.25008C12.5833 3.25008 14.6667 5.41675 14.6667 8.00008C14.6667 10.6667 12.5833 12.7501 10 12.7501Z" fill="#F47721"/>
</svg>
