<svg width="80" height="80" viewBox="0 0 80 80" fill="none" xmlns="http://www.w3.org/2000/svg">
<g clip-path="url(#clip0_26_1932)">
<path d="M38.6498 30.5036C39.1711 30.9986 40.0378 30.8985 40.4339 30.301L48.2336 18.5297C48.5912 17.9902 48.4435 17.2626 47.904 16.905C47.365 16.5479 46.6375 16.6956 46.2798 17.2346L39.251 27.8425L35.3454 24.134C34.876 23.6884 34.1345 23.708 33.6883 24.1773C33.2427 24.6467 33.2623 25.3883 33.7316 25.8338C33.731 25.8338 38.6456 30.5 38.6498 30.5036Z" fill="#264B95"/>
<path d="M39.4495 48.3777C39.6735 48.4802 39.9213 48.5346 40.1679 48.5346H40.1776C40.4285 48.5333 40.6799 48.476 40.9045 48.3685C58.7244 39.8938 61.7444 21.6089 62.2449 16.2067C62.3596 14.9731 61.6651 13.8245 60.517 13.3484C56.9696 11.8756 54.5581 8.58216 54.2236 4.75342C54.1205 3.57483 53.1134 2.65625 51.9269 2.65625H51.9129L27.9053 2.79724C26.6949 2.80396 25.7117 3.72376 25.6189 4.93652C25.3235 8.76648 22.9474 12.0837 19.4177 13.5938C18.2812 14.0796 17.6038 15.2344 17.7332 16.4673C18.2971 21.8634 21.5314 40.1123 39.4495 48.3777ZM20.3394 15.7483C24.6674 13.8977 27.583 9.8346 27.9535 5.14038L51.8921 5C52.3175 9.68384 55.2747 13.7097 59.6185 15.5127C59.8126 15.5939 59.9304 15.7855 59.9115 15.9906C59.4415 21.0535 56.6297 38.1244 40.1636 46.1243C23.6029 38.3191 20.5933 21.2811 20.0635 16.2238C20.0421 16.0193 20.1532 15.8283 20.3394 15.7483Z" fill="#264B95"/>
<path d="M23.2653 22.2449C23.4069 22.7661 24.0679 23.2434 24.7039 23.0682C25.3277 22.8961 25.6969 22.2546 25.5272 21.6303C25.2288 20.5304 24.9779 19.4153 24.7808 18.3106C27.9644 16.236 30.327 13.1397 31.4861 9.52332L48.4099 9.42383C49.6111 13.0255 52.0098 16.095 55.2178 18.1317C55.0341 19.2395 54.796 20.3583 54.5098 21.4624C54.3474 22.0892 54.724 22.7289 55.3502 22.8912C55.9777 23.0536 56.6167 22.677 56.7791 22.0502C57.1148 20.7538 57.3882 19.4379 57.5908 18.139C57.7044 17.4133 57.3723 16.6998 56.7461 16.3214C53.7578 14.5166 51.549 11.6852 50.5266 8.349C50.2965 7.59888 49.5891 7.07764 48.8042 7.07764H48.7932L31.0747 7.1814C30.2849 7.18628 29.5781 7.7179 29.3566 8.47351C28.3739 11.8213 26.198 14.6783 23.2311 16.5186C22.6091 16.9037 22.2863 17.6209 22.4077 18.346C22.6262 19.6417 22.9143 20.9534 23.2653 22.2449Z" fill="#264B95"/>
<path d="M54.4105 25.7197C53.8123 25.4719 53.1275 25.7575 52.8803 26.3557C50.1722 32.9194 45.8851 37.9096 40.1344 41.1939C34.3391 37.9731 29.9897 33.025 27.2053 26.482C26.9514 25.8869 26.2629 25.6098 25.6678 25.8631C25.0721 26.1164 24.795 26.8049 25.0483 27.4C28.0872 34.5399 32.8748 39.9226 39.278 43.3973C39.5478 43.5444 39.8432 43.617 40.138 43.617C40.4402 43.617 40.7417 43.5407 41.0163 43.3875C47.3713 39.842 52.0918 34.4123 55.0471 27.2492C55.2943 26.6511 55.0092 25.9663 54.4105 25.7197Z" fill="#264B95"/>
<path d="M7.5188 62.6208C5.23303 62.6208 3.37268 64.4806 3.37268 66.767C3.37268 69.0533 5.23303 70.9131 7.5188 70.9131C9.80518 70.9131 11.6655 69.0533 11.6655 66.767C11.6655 64.4806 9.80579 62.6208 7.5188 62.6208ZM7.5188 68.5693C6.52515 68.5693 5.71643 67.7612 5.71643 66.767C5.71643 65.7733 6.52515 64.9646 7.5188 64.9646C8.51306 64.9646 9.32178 65.7733 9.32178 66.767C9.32178 67.7612 8.51306 68.5693 7.5188 68.5693Z" fill="#264B95"/>
<path d="M79.1595 51.1481C77.6575 48.941 74.6332 48.3563 72.4182 49.8444L57.0984 60.0977L53.8281 59.9139L53.7445 59.0765C53.4186 55.7971 50.9119 53.1842 47.6489 52.7228C47.6282 52.7197 47.608 52.7173 47.5873 52.7155L31.0797 51.2689C30.5212 51.1816 28.7335 50.6683 23.8214 47.851C21.2683 46.3867 18.3917 45.5603 15.4694 45.448V42.3822C15.4694 40.8435 14.2181 39.5923 12.6794 39.5923H2.78992C1.25183 39.5923 0 40.8441 0 42.3822V72.5769C0 74.115 1.25183 75.3668 2.78992 75.3668H12.6794C14.2175 75.3668 15.4694 74.115 15.4694 72.5769V71.745L29.8993 77.2095C29.931 77.2217 31.1029 77.6599 33.2574 77.4567C33.2635 77.4561 57.2339 74.0002 57.2339 74.0002C57.24 73.9996 57.2455 73.9984 57.2516 73.9972C59.2999 73.6707 61.2317 72.8046 62.8387 71.4941C62.8534 71.4819 62.8674 71.4697 62.8815 71.4575L78.3667 57.5299C80.1917 55.9094 80.5328 53.1659 79.1595 51.1481ZM76.8048 55.7825L61.3361 69.6954C60.0555 70.7336 58.5187 71.4203 56.8903 71.6815L32.9315 75.1355C32.926 75.1361 32.9181 75.1373 32.9108 75.1386C32.9071 75.1392 32.9028 75.1398 32.8992 75.1404C32.1826 75.2533 31.4362 75.2057 30.6799 74.9988L15.4694 69.2389V55.8557C15.4694 55.2081 14.9445 54.6838 14.2975 54.6838C13.6499 54.6838 13.1256 55.2081 13.1256 55.8557V72.5769C13.1256 72.8229 12.9254 73.0231 12.6794 73.0231H2.78992C2.54395 73.0231 2.34375 72.8229 2.34375 72.5769V42.3822C2.34375 42.1362 2.54395 41.936 2.78992 41.936H12.6794C12.9254 41.936 13.1256 42.1362 13.1256 42.3822V50.5621C13.1256 51.2097 13.6505 51.734 14.2975 51.734C14.9451 51.734 15.4694 51.2091 15.4694 50.5621V47.7942C17.9834 47.9053 20.4565 48.623 22.655 49.8846C28.5797 53.2825 30.2344 53.5168 30.7782 53.5938C30.799 53.5968 30.8191 53.5986 30.8398 53.6011L47.3492 55.0476C49.5258 55.3693 51.1945 57.1173 51.4124 59.3085L51.4746 59.9329L29.3719 61.2976C29.3567 61.2964 29.3414 61.2952 29.328 61.2939C28.6115 61.2292 27.9645 60.8905 27.5049 60.34C27.0905 59.8425 26.3513 59.7754 25.8545 60.1904C25.3571 60.6049 25.2899 61.344 25.705 61.8408C26.5649 62.8723 27.7783 63.4894 29.1193 63.6285C29.8431 63.7042 52.7637 62.2015 52.7637 62.2015L57.3584 62.4597C57.6123 62.4744 57.8644 62.4048 58.0756 62.2632L73.7238 51.7908C74.873 51.0187 76.4423 51.3214 77.2217 52.4664C77.934 53.5138 77.757 54.9371 76.8048 55.7825Z" fill="#264B95"/>
</g>
<defs>
<clipPath id="clip0_26_1932">
<rect width="80" height="80" fill="white"/>
</clipPath>
</defs>
</svg>
