<svg width="55" height="55" viewBox="0 0 55 55" fill="none" xmlns="http://www.w3.org/2000/svg">
<path d="M7.47625 10.5987C7.56606 10.5432 9.14698 9.5498 10.0939 7.7941C10.4726 8.49599 11.0247 9.24483 11.8193 9.82373C11.3336 10.3644 10.6885 11.1974 10.1824 12.2612C10.1207 12.1412 10.0541 12.0195 9.98219 11.8965C9.77927 11.5494 9.33368 11.4322 8.98671 11.6352C8.63974 11.838 8.52276 12.2837 8.72546 12.6308C9.33025 13.6659 9.48816 14.61 9.48934 14.6171C9.5438 14.9684 9.84404 15.2287 10.1994 15.2332C10.2024 15.2332 10.2055 15.2332 10.2085 15.2332C10.5599 15.2332 10.8619 14.9816 10.9246 14.635C11.3971 12.0213 13.4467 10.2465 13.4662 10.2299C13.6561 10.0691 13.7509 9.82244 13.7171 9.57591C13.6835 9.32927 13.526 9.11711 13.2999 9.01312C11.2472 8.07017 10.767 5.45692 10.7627 5.43243C10.7016 5.0731 10.3858 4.81626 10.0192 4.827C9.65466 4.84 9.35613 5.12101 9.3209 5.48399C9.09145 7.85007 6.7344 9.34624 6.71066 9.36106C6.36981 9.57258 6.26421 10.0201 6.47497 10.3616C6.68563 10.7035 7.13401 10.8096 7.47625 10.5987Z" fill="#F47721"/>
<path d="M27.476 24.2241C27.0741 24.2241 26.7483 24.55 26.7483 24.9517V27.6141C26.7483 28.0158 27.0741 28.3416 27.476 28.3416C27.8779 28.3416 28.2036 28.0158 28.2036 27.6141V24.9517C28.2038 24.55 27.878 24.2241 27.476 24.2241Z" fill="#F47721"/>
<path d="M50.7414 25.0225L43.2454 21.1595C43.2252 21.146 43.2051 21.1325 43.1834 21.1209L36.8833 17.7641C36.5285 17.5753 36.0879 17.7096 35.8989 18.0643C35.7098 18.419 35.8442 18.8595 36.1988 19.0486L41.3282 21.7814L27.5108 29.6702L13.7132 21.7853L18.8498 19.0485C19.2044 18.8594 19.3389 18.4189 19.1498 18.0642C18.9609 17.7095 18.52 17.5752 18.1654 17.764L11.9707 21.0646C11.7952 21.1154 11.6381 21.231 11.5403 21.4021C11.3411 21.7511 11.4625 22.1956 11.8115 22.3948L26.0477 30.5229L19.9747 33.7696L6.1063 25.7076L9.52103 23.9478C9.87831 23.7637 10.0186 23.3248 9.83449 22.9676C9.65037 22.6104 9.21187 22.4707 8.85415 22.6541L4.25886 25.0223C4.02264 25.1441 3.87161 25.3849 3.86473 25.6507C3.85807 25.9166 3.99675 26.1649 4.22653 26.2985L19.5941 35.2319C19.707 35.2974 19.8333 35.3304 19.9598 35.3304C20.0776 35.3304 20.1955 35.3016 20.3027 35.2445L26.7483 31.7987V48.1366L12.935 40.2425V34.0642C12.935 33.6625 12.6092 33.3366 12.2073 33.3366C11.8055 33.3366 11.4797 33.6625 11.4797 34.0642V40.6648C11.4797 40.926 11.6195 41.1672 11.8463 41.2967L26.9165 49.909C26.9705 49.9742 27.0352 50.0313 27.1108 50.0751C27.2237 50.1408 27.3499 50.1734 27.4761 50.1734C27.4922 50.1734 27.5083 50.1714 27.5243 50.1704C27.5404 50.1715 27.5565 50.1734 27.5725 50.1734C27.6989 50.1734 27.825 50.1408 27.9378 50.0751C28.0133 50.0313 28.0782 49.9743 28.1321 49.909L43.2023 41.2967C43.429 41.1672 43.5689 40.926 43.5689 40.6648V34.1605C43.5689 33.7586 43.2431 33.4327 42.8413 33.4327C42.4394 33.4327 42.1136 33.7586 42.1136 34.1605V40.2424L28.3004 48.1365V30.9111L42.8531 22.5946L48.8939 25.7077L35.0256 33.7697L31.5394 31.9057C31.1848 31.7168 30.7443 31.85 30.5546 32.2043C30.365 32.5588 30.4987 32.9996 30.8531 33.1893L34.6972 35.2445C34.8046 35.3016 34.9225 35.3304 35.0404 35.3304C35.1669 35.3304 35.2933 35.2974 35.406 35.2319L50.7737 26.2985C51.0035 26.1649 51.1422 25.9166 51.1354 25.6507C51.1287 25.3851 50.9777 25.1442 50.7414 25.0225Z" fill="#F47721"/>
<path d="M15.3081 11.3534C15.3119 11.3765 15.318 11.399 15.3242 11.4217C15.3301 11.4439 15.3358 11.4658 15.3437 11.4871C15.352 11.5092 15.3625 11.5303 15.3729 11.5517C15.3831 11.5726 15.3931 11.5933 15.4053 11.6131C15.4169 11.632 15.4305 11.6498 15.444 11.6677C15.4595 11.6885 15.4752 11.7088 15.4928 11.7278C15.4983 11.7337 15.5021 11.7405 15.5077 11.7462L26.9599 23.2726L26.9601 23.2728C26.9643 23.277 26.9693 23.2805 26.9736 23.2845C27.0029 23.3125 27.0338 23.3384 27.067 23.3609C27.0692 23.3625 27.0712 23.3645 27.0735 23.366C27.109 23.3895 27.1467 23.4087 27.1855 23.4256C27.1903 23.4277 27.1947 23.4304 27.1997 23.4325C27.2008 23.4329 27.2018 23.4338 27.2029 23.4342C27.21 23.4371 27.2176 23.4381 27.2247 23.4406C27.2533 23.4512 27.2822 23.4599 27.3119 23.4667C27.3198 23.4686 27.3273 23.4718 27.3352 23.4734C27.3408 23.4745 27.3463 23.4748 27.3517 23.4757C27.3922 23.4827 27.4331 23.4873 27.4745 23.4874C27.4751 23.4874 27.4755 23.4875 27.4759 23.4875H27.4762H27.4764C27.4768 23.4875 27.4773 23.4874 27.4779 23.4874C27.5192 23.4873 27.5602 23.4826 27.6007 23.4755C27.6061 23.4746 27.6116 23.4744 27.6171 23.4733C27.6252 23.4717 27.6327 23.4685 27.6406 23.4665C27.6701 23.4596 27.6988 23.4511 27.7272 23.4406C27.7345 23.4379 27.7421 23.437 27.7494 23.434C27.7507 23.4335 27.7516 23.4328 27.7528 23.4323C27.7577 23.4302 27.7622 23.4274 27.7672 23.4253C27.8057 23.4084 27.8434 23.3893 27.8786 23.3659C27.8795 23.3652 27.8805 23.3646 27.8814 23.3638C27.8821 23.3634 27.8826 23.3626 27.8835 23.3622C27.8846 23.3615 27.8854 23.3604 27.8866 23.3596C27.9192 23.3373 27.9496 23.3119 27.9785 23.2844C27.9828 23.2803 27.9879 23.2768 27.9921 23.2726L27.9924 23.2724L39.4445 11.7459C39.4502 11.7402 39.4539 11.7335 39.4594 11.7277C39.4772 11.7087 39.4928 11.6883 39.5083 11.6675C39.5218 11.6496 39.5353 11.6317 39.5469 11.6129C39.5591 11.5931 39.5691 11.5722 39.5794 11.5513C39.5899 11.5299 39.6003 11.5089 39.6085 11.4868C39.6164 11.4654 39.6221 11.4433 39.6283 11.4211C39.6344 11.3985 39.6404 11.3762 39.6443 11.3532C39.6481 11.3304 39.6496 11.3073 39.6512 11.284C39.6529 11.2603 39.6544 11.2369 39.6537 11.213C39.6531 11.1911 39.6505 11.1693 39.6478 11.1473C39.6447 11.121 39.6409 11.0952 39.6348 11.0693C39.6327 11.0604 39.6328 11.0515 39.6304 11.0425C39.6273 11.0308 39.6214 11.0206 39.6176 11.0091C39.6095 10.9836 39.6 10.9585 39.5888 10.9339C39.5796 10.9134 39.5694 10.8938 39.5584 10.8744C39.5466 10.8536 39.5338 10.8333 39.5197 10.8134C39.5052 10.793 39.4899 10.7738 39.4735 10.7552C39.4653 10.7457 39.4592 10.7352 39.4504 10.7261L34.6167 5.74363C34.4797 5.60259 34.2912 5.52277 34.0944 5.52277H20.8578C20.6609 5.52277 20.4726 5.60259 20.3355 5.74363L15.5018 10.7261C15.4932 10.7349 15.4876 10.7451 15.4795 10.7542C15.4626 10.7733 15.4468 10.7931 15.432 10.8142C15.4184 10.8335 15.4059 10.8532 15.3943 10.8734C15.383 10.8932 15.3725 10.9134 15.3629 10.9346C15.3521 10.9589 15.3429 10.9832 15.3348 11.0083C15.331 11.02 15.325 11.0303 15.3218 11.0423C15.3193 11.0513 15.3194 11.0604 15.3173 11.0695C15.3114 11.0952 15.3075 11.121 15.3044 11.147C15.3017 11.1692 15.2991 11.1911 15.2985 11.2131C15.2978 11.2369 15.2994 11.2604 15.3011 11.2841C15.3028 11.3078 15.3043 11.3308 15.3081 11.3534ZM27.4761 20.8215L24.8359 14.3044H27.4761H30.1163L27.4761 20.8215ZM21.1658 6.97866H33.7867L37.5465 10.8542L33.8451 11.8586L31.8408 8.04063C31.6541 7.68475 31.2137 7.54811 30.8581 7.73459C30.5022 7.9214 30.3653 8.36118 30.5521 8.71707L32.8278 13.052C32.956 13.2958 33.2069 13.4414 33.4721 13.4414C33.5354 13.4414 33.5995 13.4332 33.6628 13.416L36.4983 12.6467L29.5083 19.6821L31.871 13.8499C31.9619 13.6255 31.9353 13.3707 31.8 13.1699C31.6646 12.9693 31.4385 12.8489 31.1965 12.8489H27.4763H23.7561C23.5141 12.8489 23.288 12.9694 23.1528 13.1699C23.0174 13.3707 22.9909 13.6255 23.0816 13.8499L25.4443 19.6821L18.4543 12.6467L21.2897 13.416C21.3531 13.4332 21.4171 13.4414 21.4804 13.4414C21.7455 13.4414 21.9966 13.2958 22.1246 13.052L24.4006 8.71707C24.5874 8.36118 24.4503 7.92129 24.0945 7.73459C23.7388 7.548 23.2987 7.68464 23.1119 8.04063L21.1075 11.8586L17.4061 10.8542L21.1658 6.97866Z" fill="#F47721"/>
<path d="M41.6044 15.5923C41.6943 15.5369 43.2752 14.5433 44.222 12.7877C44.6006 13.4896 45.1528 14.2384 45.9475 14.8173C45.4617 15.3581 44.8168 16.1909 44.3107 17.2546C44.2488 17.1349 44.1822 17.013 44.1104 16.8899C43.9074 16.5428 43.4619 16.4258 43.1149 16.6286C42.7679 16.8314 42.6509 17.2771 42.8536 17.6241C43.4584 18.6592 43.6162 19.6035 43.6174 19.6106C43.672 19.9619 43.9722 20.2222 44.3274 20.2267C44.3305 20.2267 44.3335 20.2267 44.3366 20.2267C44.688 20.2267 44.9898 19.9751 45.0526 19.6286C45.5251 17.0148 47.5747 15.2399 47.5941 15.2234C47.7842 15.0626 47.8787 14.8159 47.8451 14.5694C47.8115 14.3228 47.6541 14.1105 47.4279 14.0065C45.3751 13.0637 44.8949 10.4503 44.8907 10.4259C44.8297 10.0663 44.5147 9.81148 44.1472 9.82051C43.7826 9.8335 43.4841 10.1145 43.4489 10.4775C43.2193 12.8435 40.8624 14.3397 40.8385 14.3546C40.4977 14.5661 40.3922 15.0136 40.6029 15.3551C40.8139 15.697 41.2623 15.8032 41.6044 15.5923Z" fill="#F47721"/>
</svg>
