<svg width="40" height="32" viewBox="0 0 40 32" fill="none" xmlns="http://www.w3.org/2000/svg">
<path d="M35.9256 26.9404C33.2365 29.8556 29.1674 31.3334 23.8333 31.3334H21.9167V25.9303L23.4577 25.6217C26.0835 25.0965 27.9101 24.0635 28.8876 22.5474C29.3976 21.7306 29.6869 20.7955 29.7271 19.8334H23.8333C23.325 19.8334 22.8375 19.6314 22.478 19.272C22.1186 18.9126 21.9167 18.425 21.9167 17.9167V4.50004C21.9167 2.38596 23.6359 0.66671 25.75 0.66671H37.25C37.7583 0.66671 38.2458 0.868643 38.6053 1.22809C38.9647 1.58753 39.1667 2.07504 39.1667 2.58338V12.1667L39.1609 17.7615C39.1782 17.9742 39.5423 23.015 35.9256 26.9404ZM4.66666 0.66671H16.1667C16.675 0.66671 17.1625 0.868643 17.5219 1.22809C17.8814 1.58753 18.0833 2.07504 18.0833 2.58338V12.1667L18.0776 17.7615C18.0948 17.9742 18.459 23.015 14.8422 26.9404C12.1532 29.8556 8.08408 31.3334 2.74999 31.3334L0.833324 31.3334V25.9303L2.37433 25.6217C5.00016 25.0965 6.82674 24.0635 7.80424 22.5474C8.31428 21.7306 8.60355 20.7955 8.64375 19.8334H2.74999C2.24166 19.8334 1.75415 19.6314 1.3947 19.272C1.03526 18.9126 0.833324 18.425 0.833324 17.9167V4.50004C0.833324 2.38596 2.55257 0.66671 4.66666 0.66671Z" fill="#F47721"/>
</svg>
