<svg width="80" height="80" viewBox="0 0 80 80" fill="none" xmlns="http://www.w3.org/2000/svg">
<g clip-path="url(#clip0_26_1981)">
<path d="M76.15 22.856C75.8723 22.2715 75.1734 22.0227 74.5886 22.3004C74.0039 22.578 73.7553 23.2771 74.0329 23.8618C76.4373 28.9226 77.6564 34.3523 77.6564 39.9999C77.6564 50.0583 73.7395 59.5146 66.6272 66.6269C59.5148 73.7393 50.0586 77.6561 40.0001 77.6561C34.035 77.6561 28.3303 76.3024 23.045 73.6326C18.6411 71.4079 14.6625 68.2846 11.4319 64.5315L16.0554 66.0727C16.6692 66.2776 17.3331 65.9455 17.5378 65.3315C17.7425 64.7174 17.4106 64.0538 16.7965 63.8491L8.47623 61.0757C8.09091 60.9474 7.66654 61.0274 7.35482 61.2877C7.0431 61.548 6.88826 61.9511 6.9456 62.3532L8.33232 72.0602C8.41591 72.6447 8.91716 73.0665 9.49107 73.0665C9.54623 73.0665 9.60201 73.0625 9.65826 73.0546C10.299 72.963 10.7442 72.3694 10.6526 71.7288L9.87888 66.3127C13.2694 70.1846 17.4112 73.4124 21.9884 75.7246C27.6044 78.5615 33.6644 79.9999 40.0001 79.9999C50.6845 79.9999 60.7294 75.8391 68.2845 68.2843C75.8395 60.7291 80.0001 50.6843 80.0001 39.9999C80.0001 34.0018 78.7047 28.2337 76.15 22.856Z" fill="#F47721"/>
<path d="M73.0548 17.6467L71.6681 7.93969C71.5766 7.29891 70.9819 6.85344 70.3423 6.94531C69.7016 7.03688 69.2564 7.63047 69.348 8.27109L70.1209 13.6817C62.5106 4.9625 51.6466 0 40 0C29.3156 0 19.2708 4.16078 11.7156 11.7156C4.16078 19.2708 0 29.3156 0 40C0 45.9981 1.29547 51.7663 3.85016 57.1439C4.05078 57.5662 4.47109 57.8133 4.90953 57.8133C5.07797 57.8133 5.24922 57.7767 5.41156 57.6995C5.99609 57.4219 6.24484 56.7228 5.96719 56.1381C3.56281 51.0773 2.34375 45.6477 2.34375 40C2.34375 29.9416 6.26062 20.4853 13.373 13.373C20.4853 6.26062 29.9416 2.34375 40 2.34375C51.0712 2.34375 61.3911 7.10844 68.5651 15.4673L63.9448 13.9272C63.3308 13.7227 62.6672 14.0544 62.4625 14.6684C62.2578 15.2825 62.5897 15.9461 63.2037 16.1508L71.5241 18.9242C71.6451 18.9645 71.7703 18.9844 71.8945 18.9844C72.1651 18.9844 72.4319 18.8906 72.6456 18.7122C72.9575 18.4519 73.1122 18.0487 73.0548 17.6467Z" fill="#F47721"/>
<path d="M33.6151 22.3559C33.6053 21.7148 33.0825 21.2021 32.4437 21.2021C32.4375 21.2021 32.4312 21.2021 32.4251 21.2023C31.7779 21.2123 31.2615 21.7451 31.2715 22.3921L31.305 24.547L30.4362 25.3723C29.9675 25.8184 29.9482 26.5601 30.394 27.0293C30.6245 27.2718 30.9339 27.394 31.2437 27.394C31.5335 27.394 31.8239 27.2871 32.0507 27.0717L33.292 25.8925C33.5295 25.6668 33.6617 25.3521 33.6565 25.0246L33.6151 22.3559Z" fill="#F47721"/>
<path d="M62.9622 20.7222C62.5455 20.227 61.8063 20.1633 61.3111 20.58C60.8159 20.9967 60.7522 21.7359 61.1689 22.2311C64.3517 26.0138 66.4289 30.5372 67.2452 35.3444L66.8939 34.9995C66.2094 34.328 65.2708 34.0056 64.3183 34.1167C63.3658 34.2272 62.5256 34.7553 62.0133 35.5656L61.8125 35.883C61.2663 35.8752 60.7211 36.073 60.3011 36.4666L58.7588 34.6403C58.3413 34.1458 57.6017 34.0836 57.1074 34.5011C56.6128 34.9186 56.5505 35.658 56.9681 36.1525L59.3266 38.9453C59.5372 39.1947 59.8424 39.345 60.1684 39.3598C60.4947 39.3742 60.812 39.2528 61.0445 39.0238L61.8006 38.2784L62.7305 38.9233L59.243 45.8466L59.0533 45.8606C58.7895 45.8792 58.5317 45.7697 58.3638 45.5652L53.7217 39.9077C53.3111 39.4072 52.5727 39.3345 52.0725 39.745C51.5722 40.1555 51.4994 40.8939 51.9099 41.3942L56.5519 47.0517C57.203 47.8453 58.202 48.2741 59.2264 48.1978L60.7364 48.0859L56.1199 58.7619C55.7845 59.5372 55.3394 60.2591 54.797 60.907L51.1113 65.3103C49.2706 66.1184 47.3413 66.723 45.3549 67.1134L43.3224 65.3475C43.0724 65.1361 42.9736 64.7974 43.0706 64.4849L43.4258 63.3406C43.5731 62.8658 43.4049 62.3495 43.0058 62.0528L40.7077 60.3439C40.4728 60.1692 40.3494 59.8802 40.3856 59.5897L40.573 58.0908C40.6125 57.7747 40.5216 57.4561 40.3213 57.2084C40.121 56.9608 39.8283 56.8053 39.511 56.778L29.0614 55.8758C28.6497 55.8402 28.2591 55.6625 27.9617 55.3755L24.8322 52.3539C24.4814 52.0153 24.2803 51.5414 24.2803 51.0539V46.693C24.2803 46.4958 24.3519 46.3053 24.4819 46.1569L28.0453 42.0845C28.2224 41.8822 28.3245 41.625 28.3344 41.3561L28.3711 40.3652C28.3827 40.0556 28.5731 39.775 28.8567 39.6502L31.6438 38.4239L36.8828 38.2945C37.0027 38.2952 37.1052 38.3778 37.125 38.5022C37.2777 39.4559 37.9417 40.2381 38.8581 40.5436L42.605 41.7927C43.3424 42.0383 44.1464 41.8544 44.7036 41.3123C45.1797 40.8492 45.3994 40.1986 45.3125 39.5549L50.0172 39.1822C50.916 39.1109 51.7434 38.6577 52.287 37.9383C52.8306 37.2189 53.0411 36.2992 52.8644 35.415L52.732 34.7531C52.5159 33.673 51.5253 32.9266 50.4275 33.0205L47.9652 33.2278L47.5947 32.8103L50.8491 29.5559C51.3067 29.0983 51.3067 28.3563 50.8491 27.8988C50.3914 27.4411 49.6494 27.4411 49.1919 27.8988L45.2536 31.8366L43.9291 32.3939L40.2452 29.5825C39.941 29.3503 39.542 29.2814 39.1777 29.3978L34.0605 31.0325C33.9135 31.0794 33.7709 31.1369 33.6341 31.2039L33.9966 29.6736L38.0481 26.7074L42.23 26.0878C42.7438 26.0117 43.1461 25.6066 43.2186 25.0924L43.6944 21.7202C43.7392 21.4028 43.652 21.0811 43.4534 20.8297L41.7364 18.6575C41.5067 18.367 41.1541 18.2006 40.7833 18.2128C40.4131 18.2234 40.0699 18.4084 39.8574 18.7116L38.5464 20.582L37.1747 20.4703L39.4564 16.1214H41.8158L43.5991 19.3325C43.8163 19.7236 44.2361 19.9553 44.6839 19.9339C45.1306 19.9108 45.5253 19.6353 45.7011 19.2241L47.3483 15.3689C47.6413 14.6828 47.5603 13.9047 47.1436 13.2966C51.0188 14.3297 54.6464 16.2036 57.7692 18.8311C58.2645 19.2478 59.0036 19.1842 59.4203 18.6889C59.837 18.1938 59.7733 17.4545 59.2781 17.0378C53.558 12.2247 46.2799 9.74157 38.78 10.0449C31.2377 10.3503 24.1425 13.4599 18.8014 18.8011C13.4603 24.1422 10.3508 31.2374 10.0452 38.7795C9.74142 46.2775 12.2249 53.5572 17.0378 59.2775C17.2695 59.553 17.6011 59.6949 17.9352 59.6949C18.2014 59.6949 18.4692 59.6045 18.6891 59.4197C19.1842 59.003 19.248 58.2638 18.8313 57.7686C14.3956 52.4967 12.107 45.7867 12.387 38.8745C12.6686 31.9222 15.5352 25.3819 20.4586 20.4584C25.3822 15.5349 31.9225 12.6684 38.8749 12.3869C40.4524 12.323 42.0191 12.3944 43.5608 12.5931L45.1503 14.5478L44.486 16.1028L43.5297 14.3809C43.3231 14.0088 42.9308 13.778 42.5052 13.778H38.7477C38.312 13.778 37.9124 14.0197 37.7099 14.4055L35.0702 19.4369C34.7102 20.1231 34.7185 20.9381 35.092 21.617C35.4658 22.2959 36.15 22.7388 36.9222 22.8017L39.0252 22.9731C39.4391 23.0066 39.8413 22.8183 40.08 22.4778L40.8733 21.3459L41.3033 21.89L41.02 23.8981L37.4178 24.4319C37.2295 24.4597 37.0508 24.5331 36.8972 24.6455L32.2631 28.0381C32.0383 28.2028 31.8794 28.4424 31.815 28.7136L31.3119 30.8381L29.738 30.6461C28.7386 30.5242 27.7967 31.098 27.4464 32.0413L26.4788 34.6463C26.2697 35.2094 26.305 35.8399 26.5759 36.3761C26.8467 36.9124 27.3333 37.315 27.9108 37.4808L27.9456 37.4908L27.9125 37.5053C26.8125 37.9894 26.0731 39.078 26.0286 40.2789L26.0072 40.8544L22.7175 44.6141C22.2136 45.19 21.9363 45.9284 21.9363 46.6936V51.0545C21.9363 52.1744 22.3983 53.2628 23.2039 54.0406L26.3334 57.0624C27.0166 57.7219 27.9138 58.13 28.8595 58.2116L38.0959 59.0091L38.0597 59.2999C37.9189 60.4269 38.3975 61.548 39.3089 62.2256L40.941 63.4392L40.8317 63.7909C40.4553 65.0038 40.8386 66.3173 41.7963 67.1275L42.2733 67.542C41.892 67.5733 41.5095 67.5981 41.1255 67.6136C34.2136 67.8922 27.5033 65.6047 22.2314 61.1691C21.7363 60.7523 20.997 60.8161 20.5803 61.3113C20.1636 61.8064 20.2274 62.5458 20.7225 62.9624C26.13 67.5122 32.9302 69.9802 39.9917 69.98C40.4002 69.98 40.8105 69.9717 41.2205 69.9552C48.7628 69.6497 55.858 66.54 61.1989 61.1989C66.54 55.8578 69.6497 48.7625 69.9552 41.2202C70.2588 33.7222 67.7753 26.4425 62.9622 20.7222ZM34.2792 33.7048C34.3741 33.4953 34.5541 33.3352 34.7731 33.2653L37.4116 32.4225L39.7264 35.2624L39.4583 36.0555C39.251 36.6684 39.5799 37.3336 40.193 37.5409C40.3174 37.5831 40.4441 37.603 40.5686 37.603C41.0572 37.603 41.5133 37.2948 41.6786 36.8063L41.9786 35.9194C42.2186 35.2095 42.0792 34.4389 41.6058 33.8581L40.983 33.0941L43.0467 34.6691C43.3806 34.9238 43.825 34.9805 44.2122 34.8175L45.69 34.1956L46.6016 35.2228C46.8469 35.4991 47.2077 35.6431 47.5764 35.6127L50.4647 35.3694L50.5656 35.8747C50.628 36.1869 50.4992 36.4163 50.4167 36.5253C50.3344 36.6342 50.1489 36.8209 49.8316 36.8459L44.8158 37.2433C44.1878 37.293 43.6241 37.6199 43.2691 38.1402C43.0077 38.5231 42.885 38.9733 42.9114 39.4247L39.5988 38.3205C39.5141 38.2924 39.4528 38.22 39.4377 38.1252C39.2377 36.8755 38.1478 35.9511 36.888 35.9511C36.8669 35.9511 36.8456 35.9514 36.8244 35.9519L33.2209 36.0408L34.2792 33.7048ZM29.5942 32.9894L31.187 33.1836C31.4536 33.2161 31.7153 33.1988 31.9628 33.1383L30.7333 35.8525L28.743 35.2811L29.5942 32.9894ZM67.6135 41.1256C67.3319 48.078 64.4653 54.6184 59.5419 59.5419C58.7886 60.2952 57.997 60.9997 57.1724 61.6549C57.603 61.0399 57.9719 60.3834 58.2706 59.6925L63.6556 47.2397C63.8185 46.8633 63.7727 46.4294 63.535 46.0953C63.2974 45.7613 62.902 45.5755 62.4935 45.6059L61.9688 45.6449L64.8934 39.8389C65.3758 38.8809 65.075 37.6975 64.1936 37.0861L63.9372 36.9083L63.9939 36.8186C64.1749 36.5325 64.4438 36.4617 64.5881 36.445C64.7324 36.428 65.0106 36.4355 65.2522 36.6727L67.6169 38.9933C67.6422 39.7011 67.6424 40.4122 67.6135 41.1256Z" fill="#F47721"/>
</g>
<defs>
<clipPath id="clip0_26_1981">
<rect width="80" height="80" fill="white"/>
</clipPath>
</defs>
</svg>
